<svg width="56" height="56" viewBox="0 0 56 56" fill="none" xmlns="http://www.w3.org/2000/svg">
<g filter="url(#filter0_i_249_2009)">
<path d="M0 28C0 12.536 12.536 0 28 0C43.464 0 56 12.536 56 28C56 43.464 43.464 56 28 56C12.536 56 0 43.464 0 28Z" fill="url(#paint0_linear_249_2009)"/>
<path d="M28 1.5C42.6355 1.5 54.5 13.3645 54.5 28C54.5 42.6355 42.6355 54.5 28 54.5C13.3645 54.5 1.5 42.6355 1.5 28C1.5 13.3645 13.3645 1.5 28 1.5Z" stroke="#69D185" strokeWidth="3"/>
<path d="M30 14.25C31.232 14.25 32.4255 14.4122 33.5613 14.7161L30.638 17.638C30.4162 17.8607 30.2206 18.1079 30.055 18.375H30C28.0964 18.375 26.2355 18.9395 24.6526 19.9971C23.0698 21.0547 21.8362 22.5579 21.1077 24.3167C20.3792 26.0754 20.1886 28.0107 20.5599 29.8777C20.9313 31.7448 21.848 33.4598 23.1941 34.8059C24.5402 36.152 26.2552 37.0687 28.1223 37.4401C29.9893 37.8114 31.9246 37.6208 33.6833 36.8923C35.4421 36.1638 36.9453 34.9302 38.0029 33.3474C39.0605 31.7645 39.625 29.9036 39.625 28V27.945C39.8908 27.78 40.136 27.5852 40.3606 27.3606L43.2839 24.4387C43.5877 25.5745 43.75 26.768 43.75 28C43.75 35.5941 37.5941 41.75 30 41.75C22.4059 41.75 16.25 35.5941 16.25 28C16.25 20.4059 22.4059 14.25 30 14.25ZM29.4308 21.1484C29.4308 22.3185 29.373 23.5051 29.4363 24.6739L28.6938 25.4164C28.4383 25.6718 28.2357 25.975 28.0975 26.3087C27.9593 26.6424 27.8881 27.0001 27.8881 27.3613C27.8881 27.7225 27.9593 28.0802 28.0975 28.4139C28.2357 28.7476 28.4383 29.0508 28.6938 29.3062C28.9492 29.5617 29.2524 29.7643 29.5861 29.9025C29.9198 30.0407 30.2775 30.1119 30.6387 30.1119C30.9999 30.1119 31.3576 30.0407 31.6913 29.9025C32.025 29.7643 32.3282 29.5617 32.5836 29.3062L33.3261 28.5637C34.4949 28.627 35.6801 28.5692 36.8516 28.5692C36.743 29.876 36.263 31.1244 35.4681 32.1672C34.6733 33.2101 33.5968 34.0039 32.3656 34.455C31.1345 34.9062 29.8 34.9958 28.5195 34.7134C27.2391 34.431 26.0661 33.7883 25.1389 32.8611C24.2117 31.9339 23.569 30.7609 23.2866 29.4805C23.0042 28.2 23.0938 26.8655 23.545 25.6344C23.9961 24.4032 24.7899 23.3267 25.8328 22.5319C26.8756 21.737 28.124 21.257 29.4308 21.1484ZM38.943 14.4246C39.194 14.5287 39.4085 14.7048 39.5595 14.9306C39.7105 15.1565 39.7912 15.4221 39.7914 15.6937V18.21H42.3063C42.5782 18.2101 42.8439 18.2907 43.07 18.4418C43.2961 18.5929 43.4723 18.8076 43.5763 19.0588C43.6804 19.3101 43.7076 19.5865 43.6546 19.8532C43.6015 20.1199 43.4706 20.3648 43.2784 20.5571L38.415 25.415C38.1572 25.6729 37.8075 25.8178 37.4429 25.8179H34.125L31.6115 28.3327C31.3535 28.5908 31.0036 28.7357 30.6387 28.7357C30.2738 28.7357 29.9239 28.5908 29.6659 28.3327C29.4079 28.0747 29.2629 27.7248 29.2629 27.3599C29.2629 26.9951 29.4079 26.6451 29.6659 26.3871L32.1808 23.875V20.5557C32.1806 20.375 32.2161 20.1959 32.2852 20.0289C32.3544 19.8618 32.4558 19.7101 32.5836 19.5822L37.4443 14.7216C37.6365 14.5292 37.8816 14.3982 38.1484 14.3451C38.4151 14.2919 38.6917 14.3192 38.943 14.4232" fill="white"/>
</g>
<defs>
<filter id="filter0_i_249_2009" x="0" y="0" width="56" height="58" filterUnits="userSpaceOnUse" colorInterpolationFilters="sRGB">
<feFlood floodOpacity="0" result="BackgroundImageFix"/>
<feBlend mode="normal" in="SourceGraphic" in2="BackgroundImageFix" result="shape"/>
<feColorMatrix in="SourceAlpha" type="matrix" values="0 0 0 0 0 0 0 0 0 0 0 0 0 0 0 0 0 0 127 0" result="hardAlpha"/>
<feOffset dy="6"/>
<feGaussianBlur stdDeviation="1"/>
<feComposite in2="hardAlpha" operator="arithmetic" k2="-1" k3="1"/>
<feColorMatrix type="matrix" values="0 0 0 0 0 0 0 0 0 0 0 0 0 0 0 0 0 0 0.25 0"/>
<feBlend mode="normal" in2="shape" result="effect1_innerShadow_249_2009"/>
</filter>
<linearGradient id="paint0_linear_249_2009" x1="27.4717" y1="27.4717" x2="68.9824" y2="87.4933" gradientUnits="userSpaceOnUse">
<stop stop-color="#0FA038"/>
<stop offset="1" stop-color="#41CF69"/>
</linearGradient>
</defs>
</svg>
