<svg width="56" height="56" viewBox="0 0 56 56" fill="none" xmlns="http://www.w3.org/2000/svg">
<g filter="url(#filter0_i_249_2051)">
<path d="M0 28C0 12.536 12.536 0 28 0C43.464 0 56 12.536 56 28C56 43.464 43.464 56 28 56C12.536 56 0 43.464 0 28Z" fill="url(#paint0_linear_249_2051)"/>
<path d="M28 1.5C42.6355 1.5 54.5 13.3645 54.5 28C54.5 42.6355 42.6355 54.5 28 54.5C13.3645 54.5 1.5 42.6355 1.5 28C1.5 13.3645 13.3645 1.5 28 1.5Z" stroke="#FCC11A" strokeWidth="3"/>
<path d="M24.7527 36.9475C25.4875 36.2129 26.4839 35.8001 27.5229 35.8H28.4775C29.5166 35.8001 30.513 36.2129 31.2477 36.9475L31.6881 37.3879C31.7661 37.4659 31.7109 37.6 31.6002 37.6H24.4002C24.3756 37.6001 24.3516 37.5928 24.3312 37.5792C24.3107 37.5655 24.2948 37.5461 24.2853 37.5234C24.2759 37.5007 24.2735 37.4757 24.2783 37.4516C24.2831 37.4275 24.2949 37.4053 24.3123 37.3879L24.7527 36.9475Z" fill="white" stroke="white" strokeWidth="1.8" strokeLinecap="round" strokeLinejoin="round"/>
<path d="M28 31.6001V35.8001" stroke="white" strokeWidth="1.8" strokeLinecap="round" strokeLinejoin="round"/>
<path fill-rule="evenodd" clip-rule="evenodd" d="M22.8999 18.3999V23.934C22.8999 26.3289 23.9679 28.5999 25.8129 30.1278C26.4688 30.6717 27.207 31.1078 27.9999 31.4199C28.7929 31.1079 29.5312 30.6719 30.1872 30.1281C31.0986 29.3736 31.8323 28.4272 32.3358 27.3565C32.8393 26.2858 33.1003 25.1172 33.1002 23.934V18.3999H22.8999Z" fill="white"/>
<path d="M22.9 18.4V17.5C22.6613 17.5 22.4324 17.5948 22.2636 17.7636C22.0948 17.9324 22 18.1613 22 18.4H22.9ZM28 31.42L27.6709 32.2576C27.8824 32.3407 28.1176 32.3407 28.3291 32.2576L28 31.42ZM33.1003 18.4H34.0003C34.0003 18.1613 33.9055 17.9324 33.7367 17.7636C33.5679 17.5948 33.339 17.5 33.1003 17.5V18.4ZM23.8 23.9341V18.4H22V23.9341H23.8ZM26.3869 29.4349C25.5775 28.7648 24.926 27.9244 24.4788 26.9735C24.0317 26.0227 23.7999 24.9849 23.8 23.9341H22C21.9999 25.2497 22.2901 26.549 22.8499 27.7395C23.4098 28.93 24.2255 29.9822 25.2388 30.8212L26.3869 29.4349ZM28.3291 30.5821C27.625 30.305 26.9694 29.9178 26.3869 29.4349L25.2388 30.8212C25.9683 31.4259 26.7892 31.9107 27.6709 32.2576L28.3291 30.5821ZM29.6131 29.4349C29.0306 29.9178 28.375 30.305 27.6709 30.5821L28.3291 32.2576C29.2109 31.9108 30.0319 31.4258 30.7615 30.8212L29.6131 29.4349ZM32.2003 23.9341C32.2004 24.9849 31.9686 26.0227 31.5215 26.9735C31.0743 27.9244 30.4228 28.7651 29.6134 29.4352L30.7615 30.8212C31.7747 29.9823 32.5903 28.9298 33.1501 27.7394C33.7099 26.5491 34.0001 25.2498 34 23.9344L32.2003 23.9341ZM32.2 18.4L32.2003 23.9341L34 23.9344L34.0003 18.4H32.2ZM33.1003 17.5H22.9V19.3H33.1L33.1003 17.5Z" fill="white"/>
<path d="M22.8997 20.7999H23.7997C23.7997 20.5612 23.7049 20.3323 23.5361 20.1635C23.3673 19.9947 23.1384 19.8999 22.8997 19.8999V20.7999ZM23.8357 27.699L23.7532 28.5951C23.9147 28.6099 24.0773 28.5808 24.2236 28.5109C24.3699 28.4409 24.4946 28.3327 24.5845 28.1977C24.6744 28.0627 24.7262 27.906 24.7343 27.744C24.7425 27.582 24.7067 27.4208 24.6307 27.2775L23.8357 27.699ZM19.2634 20.7999V19.8999C19.0744 19.8999 18.8901 19.9594 18.7368 20.07C18.5835 20.1806 18.4689 20.3367 18.4093 20.5161L19.2634 20.7999ZM21.9997 20.7999V23.934H23.7997V20.7999H21.9997ZM21.9997 23.934C21.9997 25.4112 22.3651 26.8458 23.0401 28.1202L24.6307 27.2775C24.0851 26.2475 23.7996 25.0996 23.7997 23.934H21.9997ZM19.4926 26.3256C20.551 27.6198 22.0957 28.443 23.7532 28.5951L23.9176 26.8026C22.744 26.6946 21.6406 26.1087 20.8858 25.1856L19.4926 26.3256ZM18.2584 21.0507C17.8252 22.9011 18.2953 24.8619 19.4926 26.3256L20.8858 25.1856C20.0368 24.1476 19.7074 22.758 20.011 21.4608L18.2584 21.0507ZM18.4093 20.5161C18.3508 20.6919 18.3004 20.8703 18.2584 21.0507L20.011 21.4608C20.041 21.333 20.0765 21.2073 20.1175 21.0837L18.4093 20.5161ZM22.8997 19.8999H19.2634V21.6999H22.8997V19.8999ZM33.1003 20.7999H32.2003C32.2003 20.5612 32.2952 20.3323 32.4639 20.1635C32.6327 19.9947 32.8616 19.8999 33.1003 19.8999V20.7999ZM32.1643 27.699L32.2468 28.5951C32.0853 28.6099 31.9228 28.5808 31.7765 28.5109C31.6301 28.4409 31.5054 28.3327 31.4155 28.1977C31.3256 28.0627 31.2739 27.906 31.2657 27.744C31.2576 27.582 31.2934 27.4208 31.3693 27.2775L32.1643 27.699ZM36.7366 20.7999V19.8999C36.9257 19.8999 37.1099 19.9594 37.2632 20.07C37.4165 20.1806 37.5311 20.3367 37.5907 20.5161L36.7366 20.7999ZM34.0003 20.7999V23.934H32.2003V20.7999H34.0003ZM34.0003 23.934C34.0003 25.4112 33.6349 26.8458 32.9599 28.1202L31.3693 27.2775C31.915 26.2475 32.2005 25.0996 32.2003 23.934H34.0003ZM36.5074 26.3256C35.449 27.6198 33.9043 28.443 32.2468 28.5951L32.0824 26.8026C33.2563 26.6946 34.3594 26.1087 35.1142 25.1856L36.5074 26.3256ZM37.7416 21.0507C38.1748 22.9011 37.7047 24.8619 36.5074 26.3256L35.1142 25.1856C35.9632 24.1476 36.2926 22.758 35.989 21.4608L37.7416 21.0507ZM37.5907 20.5161C37.6489 20.6911 37.6992 20.8693 37.7416 21.0507L35.989 21.4608C35.9594 21.3335 35.9239 21.2077 35.8825 21.0837L37.5907 20.5161ZM33.1003 19.8999H36.7366L36.7363 21.6999H33.1003V19.8999Z" fill="white"/>
</g>
<defs>
<filter id="filter0_i_249_2051" x="0" y="0" width="56" height="58" filterUnits="userSpaceOnUse" colorInterpolationFilters="sRGB">
<feFlood floodOpacity="0" result="BackgroundImageFix"/>
<feBlend mode="normal" in="SourceGraphic" in2="BackgroundImageFix" result="shape"/>
<feColorMatrix in="SourceAlpha" type="matrix" values="0 0 0 0 0 0 0 0 0 0 0 0 0 0 0 0 0 0 127 0" result="hardAlpha"/>
<feOffset dy="6"/>
<feGaussianBlur stdDeviation="1"/>
<feComposite in2="hardAlpha" operator="arithmetic" k2="-1" k3="1"/>
<feColorMatrix type="matrix" values="0 0 0 0 0 0 0 0 0 0 0 0 0 0 0 0 0 0 0.25 0"/>
<feBlend mode="normal" in2="shape" result="effect1_innerShadow_249_2051"/>
</filter>
<linearGradient id="paint0_linear_249_2051" x1="27.4717" y1="27.4717" x2="68.9824" y2="87.4933" gradientUnits="userSpaceOnUse">
<stop stop-color="#F39E0B"/>
<stop offset="1" stop-color="#FCD89C"/>
</linearGradient>
</defs>
</svg>
