<svg width="56" height="56" viewBox="0 0 56 56" fill="none" xmlns="http://www.w3.org/2000/svg">
<g filter="url(#filter0_i_249_2037)">
<path d="M0 28C0 12.536 12.536 0 28 0C43.464 0 56 12.536 56 28C56 43.464 43.464 56 28 56C12.536 56 0 43.464 0 28Z" fill="url(#paint0_linear_249_2037)"/>
<path d="M28 1.5C42.6355 1.5 54.5 13.3645 54.5 28C54.5 42.6355 42.6355 54.5 28 54.5C13.3645 54.5 1.5 42.6355 1.5 28C1.5 13.3645 13.3645 1.5 28 1.5Z" stroke="#9769D4" stroke-width="3"/>
<path d="M18 30.6V19C18 18.7348 18.1054 18.4804 18.2929 18.2929C18.4804 18.1054 18.7348 18 19 18C19.2652 18 19.5196 18.1054 19.7071 18.2929C19.8946 18.4804 20 18.7348 20 19V30.6C20 31.736 20 32.529 20.05 33.145C20.1 33.751 20.193 34.099 20.327 34.362L20.442 34.568C20.731 35.038 21.144 35.421 21.638 35.673L21.741 35.722C21.992 35.83 22.325 35.906 22.854 35.949C23.471 36 24.264 36 25.4 36H37L37.102 36.005C37.3487 36.0298 37.5774 36.1453 37.7437 36.3291C37.91 36.513 38.0021 36.7521 38.0021 37C38.0021 37.2479 37.91 37.487 37.7437 37.6709C37.5774 37.8547 37.3487 37.9702 37.102 37.995L37 38H25.4C24.297 38 23.409 38.001 22.691 37.942C22.054 37.89 21.483 37.788 20.954 37.561L20.73 37.455C19.8493 37.0065 19.1214 36.307 18.638 35.445L18.545 35.27C18.243 34.677 18.117 34.037 18.058 33.309C17.999 32.59 18 31.703 18 30.599M22.5 33V26C22.5 25.7348 22.6054 25.4804 22.7929 25.2929C22.9804 25.1054 23.2348 25 23.5 25C23.7652 25 24.0196 25.1054 24.2071 25.2929C24.3946 25.4804 24.5 25.7348 24.5 26V33C24.5 33.2652 24.3946 33.5196 24.2071 33.7071C24.0196 33.8946 23.7652 34 23.5 34C23.2348 34 22.9804 33.8946 22.7929 33.7071C22.6054 33.5196 22.5 33.2652 22.5 33ZM27 33V23C27 22.7348 27.1054 22.4804 27.2929 22.2929C27.4804 22.1054 27.7348 22 28 22C28.2652 22 28.5196 22.1054 28.7071 22.2929C28.8946 22.4804 29 22.7348 29 23V33C29 33.2652 28.8946 33.5196 28.7071 33.7071C28.5196 33.8946 28.2652 34 28 34C27.7348 34 27.4804 33.8946 27.2929 33.7071C27.1054 33.5196 27 33.2652 27 33ZM31.5 33V28C31.5 27.7348 31.6054 27.4804 31.7929 27.2929C31.9804 27.1054 32.2348 27 32.5 27C32.7652 27 33.0196 27.1054 33.2071 27.2929C33.3946 27.4804 33.5 27.7348 33.5 28V33C33.5 33.2652 33.3946 33.5196 33.2071 33.7071C33.0196 33.8946 32.7652 34 32.5 34C32.2348 34 31.9804 33.8946 31.7929 33.7071C31.6054 33.5196 31.5 33.2652 31.5 33Z" fill="white"/>
</g>
<defs>
<filter id="filter0_i_249_2037" x="0" y="0" width="56" height="58" filterUnits="userSpaceOnUse" color-interpolation-filters="sRGB">
<feFlood flood-opacity="0" result="BackgroundImageFix"/>
<feBlend mode="normal" in="SourceGraphic" in2="BackgroundImageFix" result="shape"/>
<feColorMatrix in="SourceAlpha" type="matrix" values="0 0 0 0 0 0 0 0 0 0 0 0 0 0 0 0 0 0 127 0" result="hardAlpha"/>
<feOffset dy="6"/>
<feGaussianBlur stdDeviation="1"/>
<feComposite in2="hardAlpha" operator="arithmetic" k2="-1" k3="1"/>
<feColorMatrix type="matrix" values="0 0 0 0 0 0 0 0 0 0 0 0 0 0 0 0 0 0 0.25 0"/>
<feBlend mode="normal" in2="shape" result="effect1_innerShadow_249_2037"/>
</filter>
<linearGradient id="paint0_linear_249_2037" x1="27.4717" y1="27.4717" x2="68.9824" y2="87.4933" gradientUnits="userSpaceOnUse">
<stop stop-color="#8A38F5"/>
<stop offset="1" stop-color="#9F63ED"/>
</linearGradient>
</defs>
</svg>
