<svg width="354" height="310" viewBox="0 0 354 310" fill="none" xmlns="http://www.w3.org/2000/svg">
<g clip-path="url(#clip0_124_5493)">
<rect y="81.4652" width="301" height="237" rx="24.7653" transform="rotate(-15.7029 0 81.4652)" fill="#FFFEFB"/>
<path d="M31.8578 106.529L33.7764 105.989L36.6199 116.104L42.1734 114.542L42.6418 116.208L35.1698 118.309L31.8578 106.529ZM42.1549 111.805C41.9783 111.177 41.8984 110.57 41.9153 109.984C41.9322 109.398 42.0553 108.867 42.2846 108.391C42.522 107.901 42.8744 107.475 43.3418 107.114C43.806 106.741 44.3915 106.455 45.0984 106.257C45.6593 106.099 46.1975 106.032 46.7129 106.057C47.2282 106.081 47.6999 106.209 48.128 106.44C48.5529 106.659 48.9317 106.995 49.2643 107.446C49.5938 107.886 49.8548 108.448 50.0472 109.133L50.2365 109.806L44.1754 111.564C44.4253 112.281 44.7969 112.806 45.2901 113.139C45.7834 113.473 46.4283 113.528 47.2249 113.304C47.8307 113.133 48.2721 112.852 48.5491 112.459C48.8374 112.063 49.0001 111.63 49.0373 111.16L50.8295 111.528C50.754 112.336 50.4453 113.046 49.9032 113.658C49.3611 114.271 48.602 114.714 47.626 114.989C46.9079 115.191 46.2553 115.259 45.668 115.194C45.0776 115.118 44.5493 114.94 44.0831 114.659C43.6249 114.364 43.2303 113.973 42.8994 113.485C42.5797 112.994 42.3315 112.434 42.1549 111.805ZM47.9873 109.04C47.8328 108.49 47.543 108.106 47.1181 107.886C46.7045 107.663 46.2003 107.636 45.6057 107.803C44.9662 107.983 44.5127 108.286 44.2451 108.712C43.9856 109.124 43.8699 109.616 43.8979 110.19L47.9873 109.04ZM51.7691 110.864C51.6303 110.37 51.6074 109.923 51.7003 109.521C51.7901 109.109 51.9605 108.746 52.2116 108.433C52.4595 108.109 52.7696 107.835 53.142 107.609C53.5255 107.38 53.9361 107.204 54.3737 107.081C54.8897 106.936 55.3727 106.867 55.8225 106.873C56.2835 106.877 56.7162 106.973 57.1204 107.162L56.9501 106.556C56.8018 106.029 56.5112 105.663 56.0782 105.458C55.6453 105.253 55.0754 105.249 54.3686 105.448C53.7627 105.618 53.2382 105.863 52.795 106.181C52.3518 106.499 52.0007 106.822 51.7416 107.149L50.5558 105.903C50.9804 105.432 51.4897 105.004 52.0837 104.62C52.6776 104.235 53.3448 103.938 54.0853 103.73C54.4443 103.629 54.8577 103.549 55.3254 103.49C55.7931 103.431 56.2492 103.461 56.6937 103.578C57.1463 103.681 57.56 103.903 57.9348 104.246C58.3176 104.574 58.6052 105.08 58.7976 105.765L60.3353 111.234L58.4336 111.769L58.2396 111.079C58.1292 110.686 58.0947 110.326 58.1361 110C58.1856 109.659 58.2228 109.382 58.2477 109.17L58.0221 109.142C57.9817 109.602 57.9079 110.028 57.8006 110.421C57.6932 110.815 57.5381 111.167 57.335 111.478C57.132 111.79 56.8755 112.061 56.5656 112.294C56.2525 112.515 55.8715 112.689 55.4228 112.815C54.9964 112.935 54.5848 112.978 54.188 112.944C53.8023 112.907 53.4473 112.807 53.1231 112.644C52.8068 112.467 52.5285 112.23 52.288 111.935C52.0588 111.636 51.8858 111.279 51.7691 110.864ZM57.3732 108.126C57.11 107.922 56.7992 107.785 56.4409 107.716C56.0826 107.648 55.6678 107.68 55.1966 107.812C54.5571 107.992 54.1052 108.3 53.8408 108.738C53.5732 109.164 53.5151 109.647 53.6666 110.185C53.8022 110.668 54.0497 111.01 54.409 111.211C54.7764 111.399 55.2125 111.421 55.7174 111.279C56.3457 111.103 56.8099 110.73 57.1101 110.161C57.4215 109.59 57.5092 108.911 57.3732 108.126ZM70.3339 108.423L68.4154 108.962L68.2829 108.491C68.182 108.132 68.1329 107.807 68.1358 107.516C68.1386 107.224 68.1469 106.974 68.1606 106.764L67.9302 106.72C67.9169 107.232 67.8421 107.677 67.7061 108.054C67.5668 108.42 67.3822 108.732 67.1522 108.991C66.9334 109.246 66.6764 109.451 66.3812 109.607C66.086 109.763 65.7813 109.885 65.4672 109.973C64.8164 110.156 64.2143 110.21 63.6607 110.136C63.104 110.05 62.6037 109.864 62.1599 109.577C61.7241 109.276 61.3464 108.88 61.0267 108.388C60.707 107.897 60.4588 107.337 60.2822 106.709C60.1056 106.081 60.0257 105.474 60.0426 104.888C60.0595 104.302 60.177 103.773 60.3951 103.3C60.6213 102.813 60.9512 102.393 61.3849 102.041C61.8155 101.678 62.3562 101.405 63.0069 101.222C63.321 101.133 63.6446 101.079 63.9777 101.058C64.3108 101.037 64.6372 101.078 64.9569 101.182C65.2878 101.283 65.6097 101.458 65.9224 101.71C66.2319 101.949 66.5259 102.284 66.8042 102.715L66.9777 102.557C66.8568 102.385 66.7192 102.176 66.565 101.928C66.4076 101.67 66.2784 101.361 66.1775 101.002L64.8669 96.3406L66.7854 95.8013L70.3339 108.423ZM67.1048 104.301C67.0197 103.998 66.8887 103.726 66.7121 103.485C66.5322 103.233 66.3114 103.029 66.0495 102.872C65.7876 102.716 65.4767 102.622 65.1166 102.59C64.7646 102.543 64.3698 102.582 63.9323 102.705C63.5957 102.799 63.2917 102.945 63.0204 103.143C62.7458 103.329 62.5239 103.573 62.3545 103.875C62.1932 104.162 62.0941 104.499 62.0573 104.884C62.0316 105.267 62.0851 105.694 62.2175 106.165C62.35 106.636 62.5284 107.034 62.7528 107.358C62.9852 107.668 63.2451 107.904 63.5326 108.065C63.8313 108.223 64.1479 108.316 64.4823 108.343C64.8168 108.37 65.1523 108.336 65.4889 108.242C65.9264 108.119 66.2849 107.951 66.5644 107.739C66.8519 107.513 67.0667 107.265 67.2087 106.995C67.3475 106.714 67.4296 106.425 67.4549 106.127C67.477 105.818 67.4471 105.518 67.3651 105.226L67.1048 104.301ZM70.2744 103.9C70.0978 103.272 70.0179 102.665 70.0348 102.079C70.0517 101.493 70.1748 100.962 70.4041 100.486C70.6415 99.9954 70.9939 99.5695 71.4613 99.2081C71.9255 98.8354 72.511 98.5497 73.2179 98.351C73.7788 98.1933 74.317 98.1268 74.8324 98.1514C75.3477 98.176 75.8194 98.3036 76.2475 98.5343C76.6724 98.7539 77.0512 99.0892 77.3838 99.5405C77.7134 99.9805 77.9743 100.543 78.1667 101.227L78.356 101.9L72.2949 103.659C72.5448 104.375 72.9164 104.9 73.4096 105.234C73.9029 105.567 74.5478 105.622 75.3444 105.398C75.9502 105.228 76.3916 104.946 76.6687 104.554C76.9569 104.158 77.1196 103.725 77.1568 103.254L78.949 103.622C78.8735 104.43 78.5648 105.14 78.0227 105.753C77.4806 106.365 76.7215 106.809 75.7455 107.083C75.0274 107.285 74.3748 107.354 73.7875 107.289C73.1972 107.212 72.6688 107.034 72.2026 106.754C71.7444 106.459 71.3498 106.067 71.0189 105.579C70.6992 105.088 70.451 104.528 70.2744 103.9ZM76.1068 101.134C75.9523 100.585 75.6625 100.2 75.2376 99.9804C74.824 99.7578 74.3198 99.73 73.7252 99.8972C73.0857 100.077 72.6322 100.38 72.3646 100.806C72.1051 101.218 71.9894 101.711 72.0174 102.284L76.1068 101.134ZM84.8683 97.2366C84.1502 97.4384 83.5575 97.7201 83.0902 98.0815C82.6308 98.4285 82.2818 98.8233 82.043 99.2657C81.8154 99.705 81.6878 100.177 81.66 100.681C81.6323 101.185 81.6894 101.689 81.8313 102.194L82.612 104.971L80.6935 105.51L78.3278 97.096L80.2463 96.5566L80.7431 98.3237C80.8346 98.649 80.8566 98.9213 80.8093 99.1404C80.7731 99.3564 80.7195 99.553 80.6483 99.7304L80.8713 99.813C80.9814 99.5157 81.0813 99.1608 81.1711 98.7481C81.2578 98.3243 81.4108 97.8999 81.6304 97.475C81.8499 97.0501 82.1677 96.652 82.5839 96.2808C83.0001 95.9095 83.5897 95.6167 84.3526 95.4022L84.8683 97.2366ZM87.7771 103.519L84.2286 90.8973L86.1472 90.3579L87.4577 95.0195C87.5587 95.3785 87.6093 95.7093 87.6096 96.0119C87.618 96.3001 87.6097 96.5506 87.5848 96.7634L87.8152 96.8076C87.8285 96.2954 87.9048 95.8562 88.044 95.4902C88.1801 95.113 88.3632 94.7952 88.5932 94.5369C88.8232 94.2785 89.0858 94.0715 89.381 93.9159C89.6762 93.7602 89.9809 93.6382 90.2951 93.5499C90.9458 93.367 91.5439 93.3199 92.0894 93.4086C92.643 93.483 93.1377 93.6708 93.5734 93.972C94.0172 94.2589 94.399 94.6479 94.7187 95.1391C95.0384 95.6303 95.2865 96.1901 95.4632 96.8183C95.6398 97.4466 95.7197 98.0537 95.7028 98.6395C95.6859 99.2254 95.5644 99.7619 95.3382 100.249C95.1201 100.722 94.7957 101.14 94.3652 101.503C93.9427 101.852 93.4061 102.118 92.7553 102.301C92.4412 102.389 92.1176 102.444 91.7845 102.465C91.4515 102.486 91.1195 102.446 90.7885 102.345C90.4576 102.245 90.1373 102.075 89.8278 101.835C89.515 101.584 89.2195 101.243 88.9412 100.813L88.7676 100.971C88.8998 101.139 89.0374 101.349 89.1804 101.599C89.3346 101.846 89.4622 102.149 89.5632 102.508L89.6956 102.98L87.7771 103.519ZM88.3851 98.318L88.6453 99.2436C88.7273 99.5353 88.8582 99.8072 89.038 100.059C89.2147 100.3 89.4356 100.504 89.7006 100.672C89.9625 100.828 90.2694 100.93 90.6214 100.976C90.9815 101.008 91.3803 100.962 91.8178 100.839C92.1544 100.745 92.4584 100.599 92.7298 100.401C93.0011 100.204 93.2175 99.9617 93.3788 99.6742C93.5513 99.3836 93.6504 99.0471 93.676 98.6646C93.7097 98.2677 93.6603 97.8336 93.5278 97.3624C93.3954 96.8912 93.2129 96.5006 92.9805 96.1907C92.7593 95.8776 92.4994 95.642 92.2007 95.4838C91.9101 95.3113 91.5991 95.2171 91.2678 95.2013C90.9333 95.1743 90.5978 95.2081 90.2612 95.3027C89.8237 95.4257 89.4611 95.6003 89.1736 95.8264C88.8942 96.0381 88.6834 96.279 88.5414 96.5489C88.3994 96.8189 88.3173 97.1083 88.2952 97.4171C88.27 97.7148 88.2999 98.0151 88.3851 98.318ZM96.5697 96.5073C96.393 95.879 96.3188 95.2703 96.3469 94.6813C96.375 94.0923 96.5093 93.5582 96.7499 93.079C96.9985 92.5854 97.3621 92.1563 97.8407 91.7917C98.3161 91.4159 98.9073 91.1287 99.6141 90.93C100.332 90.7281 100.986 90.6652 101.577 90.7414C102.175 90.8031 102.704 90.9815 103.162 91.2764C103.628 91.5569 104.027 91.9412 104.357 92.4292C104.688 92.9173 104.942 93.4755 105.119 94.1037C105.295 94.732 105.37 95.3407 105.342 95.9297C105.313 96.5187 105.175 97.06 104.926 97.5536C104.686 98.0328 104.328 98.4603 103.853 98.8361C103.385 99.1975 102.792 99.4792 102.074 99.681C101.368 99.8797 100.715 99.9482 100.116 99.8865C99.5149 99.8135 98.9809 99.6367 98.5147 99.3562C98.0565 99.0613 97.6619 98.6698 97.331 98.1818C97.0001 97.6937 96.7463 97.1355 96.5697 96.5073ZM98.4882 95.9679C98.7153 96.7757 99.0905 97.3784 99.6139 97.776C100.134 98.1624 100.798 98.2421 101.606 98.015C102.414 97.7879 102.939 97.3739 103.182 96.773C103.421 96.1609 103.427 95.4509 103.2 94.6431C102.973 93.8353 102.6 93.2382 102.079 92.8518C101.556 92.4542 100.89 92.3689 100.082 92.596C99.2747 92.8231 98.7511 93.2427 98.5115 93.8549C98.2689 94.4558 98.2611 95.1601 98.4882 95.9679ZM106.381 95.5103C106.242 95.0167 106.219 94.5691 106.312 94.1677C106.402 93.7551 106.573 93.3924 106.824 93.0797C107.071 92.7558 107.382 92.4809 107.754 92.2552C108.138 92.0263 108.548 91.8503 108.986 91.7273C109.502 91.5822 109.985 91.513 110.434 91.5197C110.896 91.5233 111.328 91.6196 111.732 91.8086L111.562 91.2027C111.414 90.6754 111.123 90.3092 110.69 90.1041C110.257 89.8989 109.687 89.8957 108.981 90.0944C108.375 90.2648 107.85 90.5091 107.407 90.8274C106.964 91.1457 106.613 91.4683 106.354 91.7954L105.168 90.5489C105.592 90.0785 106.102 89.6508 106.696 89.2659C107.29 88.881 107.957 88.5845 108.697 88.3763C109.056 88.2754 109.47 88.1955 109.937 88.1366C110.405 88.0778 110.861 88.1069 111.306 88.2241C111.758 88.3268 112.172 88.5495 112.547 88.8921C112.93 89.2203 113.217 89.7266 113.41 90.4109L114.947 95.8803L113.046 96.415L112.852 95.725C112.741 95.3323 112.707 94.9728 112.748 94.6464C112.798 94.3056 112.835 94.0288 112.86 93.816L112.634 93.7886C112.594 94.2479 112.52 94.6742 112.413 95.0676C112.305 95.4609 112.15 95.8133 111.947 96.1246C111.744 96.4359 111.488 96.7078 111.178 96.9402C110.864 97.1614 110.484 97.335 110.035 97.4612C109.608 97.5811 109.197 97.6241 108.8 97.5905C108.414 97.5536 108.059 97.4536 107.735 97.2906C107.419 97.1132 107.14 96.8766 106.9 96.5811C106.671 96.2823 106.498 95.9254 106.381 95.5103ZM111.985 92.7726C111.722 92.5681 111.411 92.4316 111.053 92.3628C110.695 92.294 110.28 92.3259 109.809 92.4584C109.169 92.6382 108.717 92.9468 108.453 93.3843C108.185 93.8106 108.127 94.293 108.279 94.8316C108.414 95.314 108.662 95.656 109.021 95.8577C109.388 96.0449 109.825 96.0676 110.329 95.9256C110.958 95.749 111.422 95.3764 111.722 94.8077C112.033 94.2359 112.121 93.5576 111.985 92.7726ZM120.252 87.2888C119.534 87.4907 118.941 87.7723 118.474 88.1337C118.014 88.4808 117.665 88.8755 117.427 89.3179C117.199 89.7572 117.071 90.2289 117.044 90.733C117.016 91.2372 117.073 91.7417 117.215 92.2466L117.996 95.0234L116.077 95.5627L113.711 87.1482L115.63 86.6089L116.127 88.3759C116.218 88.7013 116.24 88.9735 116.193 89.1926C116.157 89.4086 116.103 89.6053 116.032 89.7827L116.255 89.8652C116.365 89.568 116.465 89.213 116.555 88.8003C116.641 88.3765 116.794 87.9521 117.014 87.5272C117.233 87.1023 117.551 86.7042 117.967 86.333C118.384 85.9618 118.973 85.6689 119.736 85.4544L120.252 87.2888ZM131.438 91.2443L129.519 91.7836L129.387 91.3124C129.286 90.9534 129.237 90.6282 129.239 90.3369C129.242 90.0455 129.251 89.795 129.264 89.5854L129.034 89.5412C129.02 90.0534 128.946 90.4981 128.81 90.8753C128.67 91.2413 128.486 91.5535 128.256 91.8119C128.037 92.0671 127.78 92.2725 127.485 92.4282C127.19 92.5838 126.885 92.7058 126.571 92.7941C125.92 92.977 125.318 93.0313 124.764 92.9569C124.208 92.8713 123.707 92.6851 123.264 92.3983C122.828 92.0971 122.45 91.7009 122.13 91.2097C121.811 90.7184 121.562 90.1587 121.386 89.5304C121.209 88.9021 121.129 88.2951 121.146 87.7092C121.163 87.1234 121.281 86.594 121.499 86.1211C121.725 85.6338 122.055 85.2141 122.489 84.8622C122.919 84.499 123.46 84.226 124.111 84.043C124.425 83.9547 124.748 83.9 125.081 83.879C125.414 83.858 125.741 83.8994 126.061 84.0032C126.391 84.1039 126.713 84.2798 127.026 84.5308C127.336 84.7707 127.629 85.1057 127.908 85.5359L128.081 85.3781C127.96 85.2063 127.823 84.9968 127.669 84.7497C127.511 84.4912 127.382 84.1825 127.281 83.8235L125.971 79.1619L127.889 78.6225L131.438 91.2443ZM128.208 87.122C128.123 86.8191 127.992 86.5472 127.816 86.3063C127.636 86.0542 127.415 85.85 127.153 85.6936C126.891 85.5372 126.58 85.443 126.22 85.4111C125.868 85.3648 125.473 85.4031 125.036 85.5261C124.699 85.6208 124.395 85.7667 124.124 85.9641C123.849 86.1502 123.628 86.3942 123.458 86.6961C123.297 86.9835 123.198 87.3201 123.161 87.7058C123.135 88.0882 123.189 88.5151 123.321 88.9863C123.454 89.4575 123.632 89.8553 123.856 90.1796C124.089 90.4896 124.349 90.7252 124.636 90.8865C124.935 91.0446 125.251 91.1372 125.586 91.1643C125.92 91.1913 126.256 91.1575 126.593 91.0629C127.03 90.9398 127.389 90.7725 127.668 90.5607C127.956 90.3346 128.17 90.0866 128.312 89.8167C128.451 89.5355 128.533 89.2461 128.559 88.9484C128.581 88.6396 128.551 88.3393 128.469 88.0476L128.208 87.122Z" fill="black"/>
<g clip-path="url(#clip1_124_5493)">
<path d="M268.3 46.1935C268.599 45.7633 270.456 43.7414 271.357 42.2244C272.061 41.0392 271.761 38.5454 269.956 37.7986C267.61 36.8294 266.212 38.9326 266.212 38.9326C266.212 38.9326 265.799 38.0821 264.529 37.8717C262.93 37.6063 261.07 37.8623 259.43 38.3461C257.84 38.8139 256.425 39.4197 255.301 40.4262C254.295 41.3277 254.454 42.1643 254.454 42.1643C254.454 42.1643 252.511 41.1313 250.967 42.8477C249.426 44.5653 250.635 46.7981 251.819 47.5453C253.362 48.5188 254.962 48.786 255.738 49.0859C256.513 49.3864 257.255 49.6714 257.371 50.0834C257.487 50.4953 257.33 50.6377 257.254 50.6347C257.179 50.6311 256.945 50.2637 256.68 50.5237C256.318 50.8806 256.716 51.7978 257.634 51.6381C258.524 51.4845 258.432 50.5248 258.432 50.5248L258.317 49.5941L260.012 50.1788L261.927 51.0231L262.19 52.1334C262.19 52.1334 262.36 52.9993 262.154 53.8479C261.948 54.6964 261.491 55.6137 261.491 55.6137L261.656 56.2823L267.383 54.5246L267.021 53.936C267.021 53.936 266.048 53.3281 265.355 52.5772C264.859 52.0393 264.631 51.4208 264.631 51.4208L264.174 49.8505L266.651 47.1756C266.651 47.1756 267.043 47.3378 267.023 47.4418C267.003 47.5458 267.255 48.4831 268.071 48.6281C268.878 48.7721 269.327 48.1767 269.091 47.5999C268.856 47.0248 268.547 47.3329 268.459 47.4561C268.37 47.5793 268.124 47.6731 267.959 47.3487C267.794 47.0283 268.001 46.6238 268.3 46.1935ZM252.66 47.0989L251.388 45.2055L251.912 43.8872L252.765 43.3543C252.765 43.3543 254.201 43.9059 254.263 43.966C254.325 44.026 255.454 45.2957 255.454 45.2957L257.357 48.4454L252.66 47.0989ZM266.905 46.0543C266.899 45.9785 266.762 42.1469 266.762 42.1469C266.75 42.1048 267.283 41.6466 267.267 41.5887C267.251 41.5309 267.855 39.403 267.855 39.403L269.734 38.9525L270.637 40.6865L270.138 42.4763C270.14 42.4776 266.911 46.1284 266.905 46.0543Z" fill="#FEC417"/>
<path d="M270.883 40.0369C270.286 38.4415 268.56 38.505 267.962 38.9284C267.365 39.3519 267.058 39.9166 267.088 40.5891C267.112 41.1328 267.089 41.5064 266.967 41.5974C266.832 41.6959 266.687 41.712 266.687 41.712C266.687 41.712 266.352 40.6145 266.234 40.1673C265.993 39.2438 266.207 38.93 266.207 38.93C266.207 38.93 266.061 38.6365 265.893 38.4982C265.726 38.3617 265.443 38.2029 265.443 38.2029C265.443 38.2029 265.618 38.6304 265.426 38.7959C265.235 38.9614 264.953 38.8742 264.953 38.8742L265.432 39.7307C265.432 39.7307 266.362 44.4101 266.357 44.5211C266.352 44.6322 265.663 47.3417 265.663 47.3417C265.663 47.3417 265.086 48.2948 264.76 48.5698C264.433 48.8453 264.235 49.3795 262.793 49.8019C261.352 50.226 259.788 49.4342 259.788 49.4342L258.21 48.5916L256.53 46.1432L255.618 43.4241L255.394 42.4051L255.317 41.9748L255.192 41.7809C255.192 41.7809 255.107 41.9337 254.871 41.9449C254.636 41.9562 254.469 41.6911 254.469 41.6911C254.469 41.6911 254.422 41.852 254.425 41.9248C254.427 41.9981 254.454 42.1608 254.454 42.1608C254.454 42.1608 254.762 42.3444 254.914 42.6877C255.065 43.0311 255.413 44.5316 255.149 44.568C254.884 44.6066 254.619 43.3401 253.515 43.1358C252.559 42.9582 251.341 43.435 251.121 44.6167C250.902 45.7979 251.62 46.9183 253.542 47.6095C255.463 48.3008 257.436 48.7807 257.964 49.6198C258.592 50.6178 258.043 51.4701 258.043 51.4701C258.043 51.4701 258.554 51.2472 258.655 50.604C258.687 50.3963 258.643 50.1192 258.611 49.9562C259.437 50.5751 260.43 51.0168 261.586 51.0397C262.028 51.0648 262.502 51.0073 263.133 50.8298C263.224 50.8042 263.313 50.7756 263.401 50.7469C264.132 50.5132 264.724 50.1972 265.25 49.722C265.969 49.1077 266.444 48.344 266.752 47.5424C266.783 47.7041 266.989 48.0697 267.261 48.3282C267.737 48.7827 268.291 48.6628 268.291 48.6628C268.291 48.6628 267.418 48.4314 267.274 47.3333C267.13 46.2351 267.722 45.6638 268.586 44.6869C269.453 43.7073 271.477 41.6328 270.883 40.0369ZM254.24 47.2145C253.671 47.0133 252.712 46.8004 252.177 46.215C251.464 45.4339 251.526 44.2302 252.358 43.8508C254.084 43.0592 254.747 45.2919 254.943 45.5301C255.139 45.7683 255.484 45.6902 255.484 45.6902C255.484 45.6902 255.538 45.8376 255.669 46.1148C255.673 46.123 255.677 46.1295 255.68 46.1383L255.692 46.1631C255.781 46.3519 255.898 46.5857 256.044 46.8492L256.055 46.8688C256.137 47.018 256.218 47.1579 256.297 47.285C256.46 47.5534 256.646 47.8396 256.858 48.1281C256.649 48.0582 255.449 47.6446 254.24 47.2145ZM270.243 41.3554C270.038 42.0714 269.403 42.7398 268.948 43.2802C268.36 43.9768 267.488 45.0202 267.242 45.3128C267.259 45.1073 267.269 44.9059 267.274 44.7096C267.298 44.4456 267.313 44.1275 267.291 43.7949C267.235 42.9217 267.062 42.1929 267.062 42.1929C267.062 42.1929 267.449 42.194 267.602 41.8935C267.756 41.593 267.631 40.8301 267.739 40.423C267.909 39.7872 268.398 39.0443 269.56 39.4515C270.232 39.6882 270.485 40.508 270.243 41.3554ZM262.868 51.4963L263.855 51.2056C263.855 51.2056 264.186 52.2798 264.568 53.0423C264.952 53.8066 265.413 54.6455 265.413 54.6455C265.413 54.6455 263.585 55.8894 263.392 55.1567C263.2 54.424 263.1 52.9198 263.1 52.9198C263.1 52.9198 262.807 51.1769 262.868 51.4963Z" fill="#FFA828"/>
<path d="M258.046 40.7232C258.046 40.7232 259.114 40.2888 260.144 40.0162C261.174 39.7437 262.286 39.6486 262.286 39.6486C262.286 39.6486 263.189 43.0982 263.543 45.0775C263.899 47.0564 263.576 48.7041 263.496 49.1673C263.42 49.6162 263.343 49.8667 263.343 49.8667L262.321 50.029L259.647 47.0771L258.046 40.7232Z" fill="#FFA828"/>
<path d="M256.871 41.6079C256.871 41.6079 257.137 41.3647 257.54 41.068C257.905 40.7989 258.26 40.6481 258.26 40.6481C258.26 40.6481 258.91 42.9205 259.403 44.5335C259.824 45.9077 260.973 48.0305 261.392 48.567C261.812 49.1036 262.521 49.903 262.521 49.903C262.521 49.903 261.581 50.0271 260.827 49.4786C260.43 49.1893 258.253 46.6992 257.673 44.8175C257.093 42.9358 256.903 41.5478 256.871 41.6079Z" fill="#FFEFAB"/>
<path d="M256.431 42.0153C256.425 42.1171 256.729 44.1447 257.627 45.8519C258.525 47.5591 259.447 48.6409 259.964 49.027C260.424 49.3689 260.701 49.5141 260.826 49.4791C260.95 49.4442 259.89 48.1172 259.262 47.019C258.636 45.922 258.082 44.5512 257.854 43.8623C257.626 43.1718 257.09 41.378 257.09 41.378C257.09 41.378 256.792 41.6302 256.727 41.6974C256.663 41.7664 256.431 42.0153 256.431 42.0153Z" fill="#FFFCFD"/>
<path d="M262.58 55.3036C262.58 55.3036 262.943 54.029 262.851 53.1656C262.76 52.3023 262.632 51.5514 262.632 51.5514L263.051 51.4526C263.051 51.4526 263.346 52.6577 263.526 53.4792C263.706 54.3006 263.79 55.1319 263.79 55.1319L262.58 55.3036Z" fill="#FFEFAB"/>
<path d="M261.931 51.0221C261.931 51.0221 262.156 50.6316 263.01 50.3916C263.863 50.1516 264.322 50.3764 264.322 50.3764L264.641 51.4235C264.641 51.4235 264.023 51.4062 263.33 51.5916C262.753 51.7462 262.194 52.1341 262.194 52.1341L261.931 51.0221ZM255.261 41.6066C255.367 41.433 256.454 40.0113 259.708 39.0661C263.209 38.0479 264.811 38.6945 264.91 38.7274C265.02 38.7627 265.207 39.0126 265.197 39.1499C265.184 39.2876 265.104 39.3593 264.811 39.3246C264.516 39.2903 262.944 38.7051 259.833 39.6855C256.846 40.6256 255.826 41.9017 255.713 42.0168C255.621 42.1087 255.424 42.1811 255.296 42.0828C255.167 41.9867 255.192 41.7204 255.261 41.6066ZM265.315 39.5688C264.92 39.7137 266.112 42.882 265.83 45.1555C265.526 47.5882 264.533 48.5371 264.615 48.6482C264.698 48.7594 265.744 48.0927 266.177 46.8681C266.579 45.7337 266.746 44.7807 266.619 43.6095C266.489 42.4393 265.753 39.4076 265.315 39.5688ZM255.485 42.7334C255.382 42.7568 255.94 44.3475 255.976 45.1055C255.989 45.3967 255.851 45.4962 255.852 45.562C255.854 45.6278 256.794 47.6126 257.646 48.3606C258.469 49.0842 259.914 49.868 260.047 49.6299C260.181 49.3918 258.996 49.0534 257.934 47.8935C257.324 47.2291 256.596 46.174 256.204 44.8426C255.945 43.962 255.705 42.6846 255.485 42.7334Z" fill="#D1701C"/>
<path d="M269.116 56.0576L268.41 53.5531L260.369 55.8137C260.394 55.8068 260.947 57.8493 261.077 58.3271L259.935 58.6484L260.445 60.4628L270.656 57.592L270.146 55.7776L269.116 56.0576Z" fill="#865C50"/>
<path d="M263.316 56.4058C263.116 56.4527 262.899 56.5571 262.959 56.805C263.019 57.0528 263.219 57.7628 263.257 57.8978C263.295 58.0328 263.438 58.1192 263.718 58.0501C263.997 57.981 266.595 57.2413 266.777 57.1901C266.959 57.1388 267.01 56.9544 266.972 56.7947C266.937 56.6344 266.732 55.975 266.682 55.7944C266.597 55.4947 266.329 55.5701 266.147 55.6213C265.949 55.673 263.316 56.4058 263.316 56.4058Z" fill="#FCC219"/>
</g>
<g clip-path="url(#clip2_124_5493)">
<path d="M62.3645 137.551C62.2225 137.772 61.5716 141.108 61.5716 141.108L61.7184 145.836L65.8718 144.246C65.8718 144.246 67.5641 136.654 67.5931 136.482C67.6432 136.169 67.6795 136.036 67.1904 136.173C66.7009 136.309 62.4972 137.343 62.3645 137.551Z" fill="#9E3110"/>
<path d="M66.4965 143.776C66.2524 143.721 59.977 145.38 59.8894 145.633C59.8104 145.863 60.1702 146.854 60.255 146.96C60.4053 147.145 62.6417 147.396 62.6417 147.396L62.7841 147.903C62.7841 147.903 62.9366 147.92 64.1076 147.591C65.2786 147.262 65.495 147.137 65.495 147.137L65.3668 146.647C65.3668 146.647 66.857 145.259 66.9131 145.109C66.9647 144.983 66.7407 143.83 66.4965 143.776ZM65.1344 145.887C65.1344 145.887 65.0909 145.639 64.9532 145.613C64.815 145.586 62.7266 146.184 62.5643 146.239C62.402 146.294 62.4848 146.589 62.4848 146.589L60.9806 146.265L60.8927 146.04L65.7981 144.689L65.8963 144.998L65.1344 145.887Z" fill="#FCC11A"/>
<path d="M62.9489 146.39C62.7841 146.437 62.7119 146.657 62.7947 146.952C62.8726 147.229 63.0313 147.43 63.2365 147.359C63.4316 147.293 63.4558 147.016 63.3757 146.785C63.2808 146.514 63.1575 146.332 62.9489 146.39Z" fill="#FDFFFF"/>
<path d="M59.721 154.911C60.9018 159.112 65.199 159.789 67.7039 159.004C70.6226 158.089 73.1606 154.965 71.7728 151.031C70.4702 147.34 66.7593 146.446 63.9989 147.245C60.7903 148.172 58.6894 151.242 59.721 154.911Z" fill="#F8932A"/>
<path d="M67.3324 158.295C67.2885 158.307 67.2429 158.32 67.1986 158.331C65.8715 158.656 64.3963 158.536 63.1874 157.883C61.8937 157.183 60.9157 156.113 60.5095 154.682C59.4431 150.923 62.278 148.633 64.3519 148.05L64.3694 148.045C67.1829 147.267 70.2013 148.685 71.0968 151.628C71.4955 152.938 71.3479 154.486 70.5818 155.825C69.8674 157.071 68.5437 157.954 67.3324 158.295Z" fill="#FCC11A"/>
<path d="M54.6992 139.607C54.6174 139.74 60.9547 146.073 60.9547 146.073C60.9547 146.073 61.6885 145.965 63.2737 145.535C64.8589 145.104 65.6129 144.779 65.6129 144.779C65.6129 144.779 60.2038 138.141 59.9863 138.121C59.879 138.109 58.5744 138.461 57.2995 138.804C56.0224 139.146 54.7768 139.48 54.6992 139.607Z" fill="#F45C2E"/>
<path d="M62.5302 149.442C62.2126 149.295 61.0959 150.322 60.6062 152.092C60.278 153.279 60.5906 154.593 60.9874 154.504C61.3843 154.415 61.0177 153.132 61.552 151.769C62.1993 150.129 62.9893 149.655 62.5302 149.442Z" fill="#FEFFFA"/>
<path d="M64.6253 148.768C64.2834 148.864 64.3858 151.273 64.0452 151.67C63.7046 152.066 61.4594 152.41 61.5206 152.722C61.5819 153.034 63.5742 153.843 63.8969 154.257C64.2196 154.672 63.7918 157.053 64.1294 157.177C64.4653 157.302 65.8061 155.349 66.3898 155.185C66.9981 155.014 69.0034 156.132 69.2045 155.845C69.4167 155.543 67.9575 153.744 67.9639 153.235C67.9721 152.726 69.5922 151.188 69.3887 150.754C69.1846 150.318 67.0724 151.282 66.5588 151.016C66.0451 150.75 64.9934 148.664 64.6253 148.768Z" fill="#F8932A"/>
</g>
<path d="M87.3883 135.222L89.0544 134.754L94.9462 142.631L93.419 143.06L91.9756 141.123L88.2143 142.181L88.0043 144.582L86.4644 145.015L87.3883 135.222ZM88.5679 136.511C88.5774 136.545 88.5879 136.615 88.5994 136.72C88.6086 136.818 88.6118 136.926 88.6089 137.044C88.6144 137.161 88.6169 137.283 88.6163 137.41C88.6218 137.527 88.6226 137.626 88.6187 137.709L88.3427 140.797L91.1573 140.005L89.32 137.539C89.2734 137.47 89.218 137.386 89.1535 137.286C89.0952 137.176 89.0338 137.07 88.9694 136.97C88.911 136.86 88.8592 136.756 88.814 136.66C88.7688 136.564 88.7415 136.499 88.732 136.465L88.5679 136.511ZM98.2792 141.694C98.2118 142.875 97.9726 143.8 97.5615 144.47C97.1589 145.137 96.5999 145.571 95.8847 145.772L95.4837 144.346C95.7614 144.267 95.9877 144.136 96.1626 143.95C96.3374 143.765 96.4746 143.559 96.574 143.331C96.6758 143.112 96.7446 142.888 96.7803 142.66C96.8185 142.44 96.8427 142.252 96.853 142.095L96.5753 142.173L92.5544 136.494L94.0816 136.064L96.4493 139.593C96.5471 139.747 96.6419 139.907 96.7337 140.072C96.8338 140.234 96.8981 140.366 96.9265 140.467L97.0906 140.421C97.0622 140.32 97.0484 140.174 97.0492 139.983C97.05 139.792 97.052 139.605 97.0552 139.423L97.2371 135.177L98.7643 134.748L98.2792 141.694ZM99.7691 137.87C99.6367 137.399 99.581 136.942 99.602 136.501C99.6231 136.059 99.7239 135.658 99.9043 135.299C100.091 134.929 100.363 134.607 100.722 134.333C101.079 134.052 101.522 133.836 102.052 133.687C102.591 133.536 103.082 133.489 103.524 133.546C103.973 133.592 104.37 133.726 104.713 133.947C105.063 134.157 105.362 134.446 105.61 134.812C105.858 135.178 106.048 135.596 106.181 136.067C106.313 136.539 106.369 136.995 106.348 137.437C106.327 137.879 106.223 138.285 106.037 138.655C105.856 139.014 105.588 139.335 105.231 139.617C104.881 139.888 104.436 140.099 103.898 140.25C103.368 140.399 102.878 140.451 102.429 140.404C101.978 140.35 101.578 140.217 101.228 140.007C100.884 139.786 100.588 139.492 100.34 139.126C100.092 138.76 99.9016 138.341 99.7691 137.87ZM101.208 137.466C101.378 138.071 101.66 138.523 102.052 138.822C102.443 139.111 102.941 139.171 103.546 139.001C104.152 138.831 104.546 138.52 104.728 138.069C104.908 137.61 104.912 137.078 104.742 136.472C104.572 135.866 104.292 135.418 103.901 135.128C103.509 134.83 103.01 134.766 102.404 134.937C101.798 135.107 101.405 135.422 101.226 135.881C101.044 136.331 101.038 136.86 101.208 137.466ZM112.184 133.14L112.342 133.218C112.433 132.993 112.507 132.736 112.562 132.449C112.623 132.15 112.717 131.855 112.845 131.565C112.972 131.275 113.152 131.011 113.385 130.774C113.615 130.527 113.945 130.344 114.374 130.223C114.568 130.169 114.785 130.135 115.026 130.121C115.265 130.1 115.499 130.138 115.726 130.238C115.963 130.335 116.184 130.509 116.391 130.759C116.595 131.001 116.763 131.358 116.896 131.829L118.102 136.121L116.663 136.525L115.631 132.852C115.553 132.575 115.451 132.358 115.326 132.203C115.209 132.045 115.082 131.935 114.947 131.873C114.818 131.801 114.685 131.765 114.549 131.767C114.422 131.767 114.304 131.782 114.194 131.812C113.866 131.905 113.603 132.065 113.404 132.294C113.211 132.511 113.071 132.759 112.986 133.037C112.901 133.316 112.858 133.6 112.858 133.891C112.864 134.17 112.899 134.424 112.963 134.651L113.723 137.352L112.284 137.757L111.251 134.084C111.171 133.798 111.072 133.576 110.955 133.418C110.838 133.26 110.716 133.149 110.589 133.085C110.462 133.021 110.331 132.99 110.195 132.991C110.068 132.991 109.945 133.007 109.827 133.04C109.491 133.135 109.223 133.296 109.024 133.525C108.831 133.743 108.692 133.991 108.606 134.269C108.521 134.547 108.479 134.831 108.479 135.122C108.485 135.402 108.52 135.655 108.583 135.882L109.343 138.583L107.904 138.988L106.13 132.677L107.569 132.272L107.799 133.093C107.899 133.446 107.938 133.717 107.918 133.904C107.896 134.083 107.858 134.239 107.805 134.372L107.963 134.45C108.054 134.224 108.131 133.967 108.195 133.676C108.256 133.378 108.35 133.083 108.478 132.793C108.613 132.501 108.806 132.233 109.056 131.991C109.303 131.74 109.658 131.549 110.12 131.419C110.289 131.372 110.476 131.342 110.681 131.329C110.892 131.306 111.098 131.326 111.297 131.388C111.493 131.441 111.672 131.545 111.834 131.7C112.004 131.852 112.13 132.075 112.213 132.37C112.265 132.555 112.281 132.709 112.261 132.833C112.25 132.954 112.224 133.056 112.184 133.14ZM116.464 127.048L117.903 126.643L118.237 127.83L116.798 128.234L116.464 127.048ZM117.174 129.572L118.613 129.167L120.387 135.478L118.948 135.883L117.174 129.572ZM127.88 133.372L126.441 133.776L126.342 133.423C126.266 133.154 126.229 132.91 126.231 132.691C126.233 132.473 126.24 132.285 126.25 132.128L126.077 132.095C126.067 132.479 126.011 132.812 125.909 133.095C125.805 133.37 125.666 133.604 125.494 133.798C125.329 133.989 125.137 134.143 124.915 134.26C124.694 134.376 124.465 134.468 124.23 134.534C123.742 134.671 123.29 134.712 122.875 134.656C122.457 134.592 122.082 134.452 121.749 134.237C121.423 134.011 121.139 133.714 120.899 133.346C120.66 132.977 120.474 132.558 120.341 132.086C120.209 131.615 120.149 131.16 120.161 130.721C120.174 130.281 120.262 129.884 120.426 129.529C120.595 129.164 120.843 128.849 121.168 128.585C121.491 128.313 121.897 128.108 122.385 127.971C122.62 127.905 122.863 127.864 123.113 127.848C123.362 127.832 123.607 127.863 123.847 127.941C124.095 128.017 124.337 128.148 124.571 128.337C124.803 128.517 125.024 128.768 125.233 129.091L125.363 128.972C125.272 128.843 125.169 128.686 125.053 128.501C124.935 128.307 124.838 128.076 124.763 127.806L123.78 124.31L125.218 123.906L127.88 133.372ZM125.458 130.28C125.394 130.053 125.296 129.849 125.163 129.668C125.029 129.479 124.863 129.326 124.667 129.209C124.47 129.092 124.237 129.021 123.967 128.997C123.703 128.962 123.407 128.991 123.079 129.083C122.826 129.154 122.598 129.264 122.395 129.412C122.189 129.551 122.022 129.734 121.895 129.961C121.774 130.176 121.7 130.429 121.672 130.718C121.653 131.005 121.693 131.325 121.793 131.678C121.892 132.032 122.026 132.33 122.194 132.573C122.368 132.806 122.563 132.983 122.779 133.104C123.003 133.222 123.24 133.292 123.491 133.312C123.742 133.332 123.994 133.307 124.246 133.236C124.574 133.144 124.843 133.018 125.053 132.859C125.268 132.69 125.429 132.504 125.536 132.301C125.64 132.09 125.702 131.873 125.721 131.65C125.737 131.418 125.715 131.193 125.653 130.974L125.458 130.28ZM127.835 129.98C127.703 129.508 127.643 129.053 127.656 128.614C127.668 128.174 127.761 127.776 127.933 127.419C128.111 127.051 128.375 126.732 128.725 126.461C129.074 126.181 129.513 125.967 130.043 125.818C130.464 125.7 130.867 125.65 131.254 125.668C131.64 125.687 131.994 125.782 132.315 125.955C132.634 126.12 132.918 126.372 133.167 126.71C133.414 127.04 133.61 127.462 133.754 127.975L133.896 128.48L129.351 129.799C129.538 130.336 129.817 130.73 130.187 130.98C130.557 131.23 131.04 131.271 131.638 131.103C132.092 130.975 132.423 130.764 132.631 130.47C132.847 130.173 132.969 129.848 132.997 129.495L134.341 129.771C134.285 130.377 134.053 130.91 133.646 131.369C133.24 131.829 132.671 132.161 131.939 132.367C131.4 132.518 130.911 132.57 130.47 132.521C130.027 132.464 129.631 132.33 129.281 132.12C128.938 131.899 128.642 131.605 128.394 131.239C128.154 130.871 127.968 130.451 127.835 129.98ZM132.21 127.905C132.094 127.493 131.876 127.205 131.558 127.04C131.247 126.873 130.869 126.852 130.423 126.977C129.944 127.112 129.604 127.34 129.403 127.659C129.208 127.968 129.121 128.338 129.142 128.768L132.21 127.905Z" fill="black"/>
<path d="M225.52 106.042C226.321 105.817 226.749 105.258 226.574 104.589C226.359 103.824 225.498 103.694 224.771 103.899L224.204 104.058L223.93 103.084L224.559 102.908C225.311 102.696 225.735 102.218 225.562 101.602C225.381 100.961 224.809 100.723 224.082 100.927C223.244 101.163 222.886 101.782 223.087 102.497L221.768 102.868C221.373 101.462 222.405 100.308 223.798 99.9163C225.104 99.5489 226.506 99.8996 226.863 101.169C227.075 101.921 226.762 102.514 226.217 102.987C227.138 103.14 227.692 103.503 227.9 104.243C228.281 105.598 227.135 106.679 225.804 107.053C224.325 107.469 222.881 106.97 222.469 105.503L223.788 105.133C224.03 105.995 224.731 106.264 225.52 106.042ZM228.166 101.308C227.743 99.8046 228.74 98.5267 230.17 98.1247C231.637 97.7123 233.06 98.1369 233.458 99.5544C233.815 100.824 233.012 101.848 231.888 102.909C231.409 103.336 230.916 103.9 230.763 104.395L234.522 103.338L234.806 104.349L229.568 105.822L229.483 105.473C229.112 104.154 229.846 103.31 231.107 102.024C231.861 101.254 232.34 100.64 232.139 99.9252C231.935 99.198 231.256 98.9102 230.454 99.1354C229.579 99.3815 229.263 100.149 229.485 100.938L228.166 101.308ZM238.945 103.318C236.899 103.894 235.476 102.711 234.904 100.677C234.322 98.6066 234.951 96.8206 236.96 96.2557C238.994 95.684 240.45 96.9371 241.018 98.9585C241.597 101.017 240.955 102.754 238.945 103.318ZM239.724 99.3224C239.332 97.9296 238.422 96.9619 237.251 97.2911C236.055 97.6273 235.809 98.9734 236.186 100.317C236.564 101.66 237.451 102.688 238.672 102.345C239.88 102.005 240.109 100.691 239.724 99.3224ZM250.89 96.7949C251.369 98.4958 250.754 99.9987 249.065 100.473C248.178 100.723 247.51 100.618 246.93 100.116L247.713 102.902L246.48 103.248L244.332 95.6063L245.429 95.2979L245.731 96.1838C246.013 95.2933 246.417 94.887 247.416 94.6063C249.129 94.1247 250.426 95.1432 250.89 96.7949ZM246.354 98.0701C246.666 99.1794 247.509 99.8601 248.569 99.5621C249.642 99.2606 249.973 98.263 249.658 97.1414C249.353 96.0567 248.527 95.3444 247.467 95.6425C246.37 95.9509 246.053 96.9977 246.354 98.0701ZM253.967 96.7147C254.182 97.4789 254.427 97.7824 255.092 97.5953C255.302 97.5364 255.483 97.4721 255.636 97.4024L255.864 97.3119L256.137 98.2856L255.917 98.4008C255.767 98.4828 255.586 98.5471 255.376 98.606C254.723 98.7897 254.176 98.7838 253.735 98.5885C253.295 98.3932 252.966 97.887 252.734 97.0612L251.999 94.4481L251.087 94.7045L250.827 93.7801L251.74 93.5237L251.369 92.2048L252.601 91.8583L252.972 93.1771L254.39 92.7786L254.65 93.7031L253.232 94.1016L253.967 96.7147ZM258.129 92.645C257.513 92.8182 257.035 93.2453 257.159 93.6891C257.239 93.9726 257.448 94.1001 257.805 94.0928C258.811 94.0759 259.709 93.8634 260.428 94.0072C261.015 94.1081 261.435 94.4687 261.605 95.0727C261.948 96.2929 260.824 97.1676 259.505 97.5383C258.235 97.8953 256.813 97.7099 256.477 96.5142L257.735 96.1608C257.899 96.6997 258.627 96.7344 259.231 96.5646C259.823 96.3983 260.498 96.0089 260.353 95.4912C260.266 95.1831 259.992 95.0606 259.616 95.0467C258.629 94.9915 258.079 95.3057 257.067 95.1115C256.464 95.0017 256.06 94.65 255.89 94.046C255.574 92.9243 256.524 92.0455 257.856 91.6712C259.187 91.297 260.478 91.6788 260.807 92.8498L259.537 93.2067C259.382 92.652 258.672 92.4925 258.129 92.645Z" fill="black" fill-opacity="0.6"/>
<g clip-path="url(#clip3_124_5493)">
<path d="M72.6158 174.013C72.4737 174.235 71.8228 177.571 71.8228 177.571L71.9696 182.299L76.123 180.709C76.123 180.709 77.8153 173.117 77.8443 172.944C77.8944 172.631 77.9307 172.498 77.4417 172.636C76.9521 172.772 72.7485 173.806 72.6158 174.013Z" fill="#0D6C6E"/>
<path d="M76.7475 180.238C76.5034 180.184 70.228 181.842 70.1404 182.096C70.0614 182.326 70.4211 183.316 70.506 183.423C70.6563 183.608 72.8926 183.859 72.8926 183.859L73.0351 184.365C73.0351 184.365 73.1876 184.383 74.3586 184.054C75.5296 183.725 75.746 183.599 75.746 183.599L75.6178 183.11C75.6178 183.11 77.1079 181.722 77.1641 181.572C77.2157 181.446 76.9917 180.293 76.7475 180.238ZM75.3854 182.35C75.3854 182.35 75.3419 182.101 75.2042 182.076C75.066 182.048 72.9776 182.647 72.8153 182.702C72.6529 182.757 72.7357 183.052 72.7357 183.052L71.2316 182.727L71.1437 182.502L76.049 181.152L76.1473 181.461L75.3854 182.35Z" fill="#1F4B4C"/>
<path d="M73.2001 182.853C73.0354 182.899 72.9631 183.12 73.0459 183.415C73.1238 183.692 73.2825 183.893 73.4877 183.822C73.6828 183.756 73.707 183.478 73.6269 183.247C73.532 182.977 73.4087 182.794 73.2001 182.853Z" fill="#FDFFFF"/>
<path d="M69.9722 191.374C71.153 195.574 75.4502 196.252 77.9551 195.466C80.8738 194.551 83.4119 191.428 82.024 187.494C80.7214 183.803 77.0105 182.909 74.2502 183.708C71.0415 184.634 68.9407 187.705 69.9722 191.374Z" fill="#97918B"/>
<path d="M77.5836 194.758C77.5397 194.77 77.4942 194.783 77.4498 194.793C76.1228 195.119 74.6475 194.999 73.4386 194.345C72.1449 193.646 71.1669 192.576 70.7607 191.145C69.6943 187.385 72.5293 185.096 74.6031 184.513L74.6206 184.508C77.4341 183.73 80.4525 185.148 81.348 188.091C81.7467 189.401 81.5991 190.948 80.833 192.287C80.1186 193.534 78.7949 194.417 77.5836 194.758Z" fill="#D9D5CB"/>
<path d="M64.9504 176.07C64.8686 176.203 71.2059 182.536 71.2059 182.536C71.2059 182.536 71.9397 182.428 73.5249 181.997C75.1101 181.567 75.8641 181.241 75.8641 181.241C75.8641 181.241 70.4551 174.604 70.2375 174.584C70.1303 174.572 68.8256 174.924 67.5507 175.267C66.2736 175.609 65.028 175.942 64.9504 176.07Z" fill="#08D1D4"/>
<path d="M72.7814 185.905C72.4638 185.757 71.3472 186.784 70.8574 188.555C70.5292 189.742 70.8418 191.056 71.2386 190.967C71.6355 190.878 71.269 189.595 71.8033 188.232C72.4506 186.591 73.2405 186.118 72.7814 185.905Z" fill="#FEFFFA"/>
<path d="M74.8765 185.23C74.5347 185.326 74.637 187.736 74.2964 188.132C73.9558 188.529 71.7107 188.873 71.7719 189.185C71.8331 189.497 73.8255 190.306 74.1481 190.72C74.4708 191.135 74.043 193.515 74.3807 193.64C74.7166 193.765 76.0573 191.812 76.641 191.648C77.2493 191.477 79.2547 192.595 79.4557 192.307C79.6679 192.006 78.2087 190.207 78.2151 189.698C78.2233 189.189 79.8434 187.651 79.6399 187.217C79.4359 186.78 77.3237 187.745 76.81 187.479C76.2964 187.213 75.2446 185.127 74.8765 185.23Z" fill="#97918B"/>
</g>
<path d="M95.6756 177.004C95.484 176.322 95.3943 175.68 95.4064 175.077C95.4162 174.466 95.538 173.915 95.7718 173.422C96.0056 172.93 96.3526 172.501 96.8128 172.135C97.2814 171.767 97.8733 171.483 98.5886 171.282C99.6909 170.972 100.627 170.99 101.396 171.337C102.163 171.675 102.777 172.261 103.238 173.094L101.872 173.709C101.561 173.152 101.167 172.768 100.69 172.557C100.222 172.344 99.6383 172.335 98.9399 172.531C98.4687 172.664 98.083 172.859 97.783 173.115C97.4806 173.364 97.256 173.663 97.1092 174.013C96.9601 174.355 96.8888 174.747 96.8953 175.19C96.8995 175.625 96.9725 176.094 97.1145 176.599C97.2564 177.104 97.44 177.547 97.6653 177.929C97.8883 178.302 98.1536 178.6 98.4612 178.822C98.7665 179.036 99.1141 179.174 99.504 179.237C99.8916 179.291 100.321 179.252 100.792 179.12C101.491 178.924 101.984 178.612 102.273 178.186C102.57 177.758 102.706 177.224 102.681 176.587L104.168 176.4C104.208 177.351 103.99 178.175 103.514 178.872C103.036 179.561 102.246 180.06 101.143 180.37C100.428 180.571 99.7748 180.636 99.1832 180.567C98.6 180.494 98.0803 180.309 97.6241 180.011C97.1679 179.712 96.7776 179.309 96.4532 178.801C96.1264 178.284 95.8672 177.685 95.6756 177.004ZM109.139 174.022C109.061 173.744 108.96 173.528 108.834 173.372C108.717 173.215 108.591 173.105 108.456 173.043C108.326 172.971 108.194 172.935 108.058 172.937C107.931 172.936 107.812 172.952 107.703 172.982C107.375 173.075 107.111 173.235 106.912 173.463C106.719 173.681 106.58 173.929 106.495 174.207C106.41 174.485 106.367 174.77 106.367 175.06C106.373 175.34 106.408 175.594 106.472 175.821L107.231 178.522L105.792 178.926L103.131 169.46L104.57 169.056L105.688 173.031C105.787 173.385 105.827 173.655 105.807 173.842C105.784 174.021 105.746 174.177 105.693 174.31L105.851 174.388C105.942 174.163 106.015 173.906 106.07 173.618C106.132 173.32 106.226 173.025 106.353 172.735C106.481 172.445 106.661 172.181 106.893 171.943C107.124 171.697 107.453 171.513 107.883 171.393C108.076 171.338 108.294 171.305 108.535 171.291C108.774 171.269 109.007 171.308 109.235 171.408C109.471 171.505 109.693 171.678 109.899 171.929C110.104 172.171 110.272 172.528 110.404 172.999L111.611 177.291L110.172 177.695L109.139 174.022ZM109.977 168.216L111.416 167.812L111.749 168.998L110.31 169.403L109.977 168.216ZM110.687 170.741L112.125 170.336L113.9 176.647L112.461 177.052L110.687 170.741ZM121.392 174.541L119.954 174.945L119.854 174.592C119.779 174.322 119.742 174.078 119.744 173.86C119.746 173.641 119.752 173.454 119.762 173.296L119.59 173.263C119.58 173.647 119.524 173.981 119.422 174.264C119.317 174.538 119.179 174.772 119.006 174.966C118.842 175.158 118.649 175.312 118.428 175.428C118.207 175.545 117.978 175.637 117.742 175.703C117.254 175.84 116.803 175.881 116.388 175.825C115.97 175.761 115.595 175.621 115.262 175.406C114.935 175.18 114.652 174.883 114.412 174.515C114.172 174.146 113.986 173.726 113.854 173.255C113.721 172.784 113.661 172.329 113.674 171.889C113.687 171.45 113.775 171.053 113.938 170.698C114.108 170.333 114.355 170.018 114.681 169.754C115.004 169.482 115.409 169.277 115.897 169.14C116.133 169.073 116.376 169.032 116.625 169.017C116.875 169.001 117.12 169.032 117.36 169.11C117.608 169.185 117.849 169.317 118.084 169.505C118.316 169.685 118.536 169.937 118.745 170.259L118.875 170.141C118.785 170.012 118.681 169.855 118.566 169.67C118.448 169.476 118.351 169.244 118.275 168.975L117.292 165.479L118.731 165.074L121.392 174.541ZM118.971 171.449C118.907 171.222 118.809 171.018 118.676 170.837C118.541 170.648 118.376 170.495 118.179 170.377C117.983 170.26 117.75 170.19 117.48 170.166C117.216 170.131 116.919 170.16 116.591 170.252C116.339 170.323 116.111 170.432 115.907 170.58C115.701 170.72 115.535 170.903 115.408 171.129C115.287 171.345 115.213 171.597 115.185 171.887C115.166 172.173 115.206 172.494 115.305 172.847C115.405 173.2 115.538 173.499 115.707 173.742C115.881 173.974 116.076 174.151 116.292 174.272C116.516 174.391 116.753 174.46 117.004 174.481C117.255 174.501 117.506 174.475 117.759 174.404C118.087 174.312 118.356 174.187 118.565 174.028C118.781 173.858 118.942 173.672 119.049 173.47C119.153 173.259 119.214 173.042 119.233 172.819C119.25 172.587 119.227 172.362 119.166 172.143L118.971 171.449ZM119.764 165.465L121.203 165.06L121.536 166.247L120.097 166.651L119.764 165.465ZM120.473 167.989L121.912 167.585L123.686 173.896L122.248 174.3L120.473 167.989ZM123.64 170.504C123.508 170.032 123.448 169.577 123.461 169.138C123.473 168.698 123.566 168.3 123.738 167.943C123.916 167.575 124.18 167.256 124.531 166.985C124.879 166.705 125.318 166.491 125.848 166.342C126.269 166.224 126.672 166.174 127.059 166.192C127.445 166.211 127.799 166.306 128.12 166.479C128.439 166.644 128.723 166.896 128.973 167.234C129.22 167.564 129.415 167.986 129.56 168.499L129.702 169.004L125.156 170.323C125.343 170.86 125.622 171.254 125.992 171.504C126.362 171.754 126.846 171.795 127.443 171.627C127.897 171.5 128.228 171.288 128.436 170.994C128.652 170.697 128.774 170.372 128.802 170.019L130.146 170.295C130.09 170.901 129.858 171.434 129.452 171.893C129.045 172.353 128.476 172.685 127.744 172.891C127.205 173.042 126.716 173.094 126.275 173.045C125.833 172.988 125.436 172.854 125.087 172.644C124.743 172.423 124.447 172.129 124.199 171.763C123.959 171.395 123.773 170.975 123.64 170.504ZM128.015 168.429C127.899 168.017 127.682 167.729 127.363 167.564C127.053 167.397 126.675 167.376 126.229 167.502C125.749 167.636 125.409 167.864 125.208 168.183C125.014 168.492 124.927 168.862 124.948 169.292L128.015 168.429ZM131.467 171.708L128.806 162.242L130.245 161.837L131.228 165.333C131.304 165.603 131.342 165.851 131.342 166.078C131.348 166.294 131.342 166.482 131.323 166.641L131.496 166.674C131.506 166.29 131.563 165.961 131.668 165.686C131.77 165.404 131.907 165.165 132.079 164.971C132.252 164.778 132.449 164.622 132.67 164.506C132.892 164.389 133.12 164.297 133.356 164.231C133.844 164.094 134.292 164.059 134.702 164.125C135.117 164.181 135.488 164.322 135.815 164.548C136.147 164.763 136.434 165.055 136.674 165.423C136.913 165.792 137.099 166.211 137.232 166.683C137.364 167.154 137.424 167.609 137.412 168.048C137.399 168.488 137.308 168.89 137.138 169.256C136.975 169.61 136.731 169.924 136.408 170.196C136.092 170.458 135.689 170.657 135.201 170.795C134.965 170.861 134.723 170.902 134.473 170.918C134.223 170.933 133.974 170.903 133.726 170.828C133.478 170.752 133.238 170.625 133.005 170.445C132.771 170.257 132.549 170.001 132.34 169.678L132.21 169.797C132.309 169.923 132.413 170.08 132.52 170.268C132.636 170.454 132.731 170.681 132.807 170.95L132.906 171.304L131.467 171.708ZM131.923 167.807L132.119 168.501C132.18 168.72 132.278 168.924 132.413 169.113C132.546 169.294 132.711 169.447 132.91 169.573C133.106 169.69 133.337 169.766 133.601 169.801C133.871 169.825 134.17 169.791 134.498 169.698C134.75 169.627 134.978 169.518 135.182 169.37C135.385 169.222 135.548 169.04 135.669 168.824C135.798 168.607 135.872 168.354 135.892 168.067C135.917 167.77 135.88 167.444 135.78 167.091C135.681 166.737 135.544 166.444 135.37 166.212C135.204 165.977 135.009 165.8 134.785 165.682C134.567 165.552 134.334 165.482 134.085 165.47C133.835 165.45 133.583 165.475 133.33 165.546C133.002 165.638 132.73 165.769 132.515 165.939C132.305 166.097 132.147 166.278 132.041 166.48C131.934 166.683 131.873 166.9 131.856 167.132C131.837 167.355 131.859 167.58 131.923 167.807ZM138.062 166.449C137.929 165.978 137.869 165.523 137.882 165.083C137.895 164.644 137.987 164.246 138.159 163.889C138.337 163.521 138.601 163.201 138.952 162.93C139.3 162.651 139.739 162.437 140.269 162.288C140.69 162.169 141.094 162.119 141.48 162.138C141.867 162.156 142.221 162.252 142.542 162.425C142.86 162.59 143.144 162.841 143.394 163.18C143.641 163.51 143.837 163.931 143.981 164.445L144.123 164.949L139.577 166.268C139.765 166.806 140.043 167.2 140.413 167.45C140.783 167.7 141.267 167.741 141.864 167.573C142.319 167.445 142.65 167.234 142.857 166.94C143.074 166.643 143.196 166.318 143.224 165.965L144.568 166.241C144.511 166.847 144.28 167.38 143.873 167.839C143.466 168.298 142.897 168.631 142.165 168.837C141.627 168.988 141.137 169.039 140.697 168.991C140.254 168.934 139.858 168.8 139.508 168.589C139.164 168.368 138.868 168.075 138.62 167.709C138.38 167.34 138.194 166.92 138.062 166.449ZM142.436 164.375C142.32 163.963 142.103 163.674 141.784 163.51C141.474 163.343 141.096 163.322 140.65 163.447C140.17 163.582 139.83 163.809 139.629 164.129C139.435 164.438 139.348 164.807 139.369 165.237L142.436 164.375ZM149.007 161.452C148.469 161.603 148.024 161.814 147.674 162.085C147.329 162.346 147.067 162.642 146.888 162.974C146.718 163.303 146.622 163.657 146.601 164.035C146.58 164.413 146.623 164.791 146.729 165.17L147.315 167.253L145.876 167.657L144.102 161.346L145.541 160.942L145.913 162.267C145.982 162.511 145.998 162.715 145.963 162.88C145.936 163.042 145.896 163.189 145.842 163.322L146.009 163.384C146.092 163.161 146.167 162.895 146.234 162.585C146.299 162.267 146.414 161.949 146.579 161.631C146.743 161.312 146.982 161.013 147.294 160.735C147.606 160.456 148.048 160.237 148.62 160.076L149.007 161.452ZM149.858 163.133C149.725 162.662 149.665 162.206 149.678 161.767C149.691 161.328 149.783 160.929 149.955 160.572C150.133 160.205 150.397 159.885 150.748 159.614C151.096 159.335 151.535 159.12 152.065 158.971C152.486 158.853 152.89 158.803 153.276 158.821C153.663 158.84 154.016 158.936 154.338 159.109C154.656 159.273 154.94 159.525 155.19 159.863C155.437 160.193 155.633 160.615 155.777 161.128L155.919 161.633L151.373 162.952C151.56 163.49 151.839 163.883 152.209 164.133C152.579 164.384 153.063 164.425 153.66 164.257C154.115 164.129 154.446 163.918 154.653 163.623C154.87 163.326 154.992 163.002 155.019 162.649L156.364 162.925C156.307 163.531 156.075 164.063 155.669 164.523C155.262 164.982 154.693 165.315 153.961 165.52C153.422 165.672 152.933 165.723 152.493 165.674C152.05 165.617 151.654 165.484 151.304 165.273C150.96 165.052 150.664 164.758 150.416 164.392C150.176 164.024 149.99 163.604 149.858 163.133ZM154.232 161.059C154.116 160.646 153.899 160.358 153.58 160.193C153.27 160.026 152.892 160.005 152.446 160.131C151.966 160.266 151.626 160.493 151.425 160.813C151.231 161.122 151.144 161.491 151.165 161.921L154.232 161.059Z" fill="black"/>
<path opacity="0.8" d="M233.34 139.198C232.917 137.695 233.915 136.417 235.345 136.015C236.811 135.602 238.234 136.027 238.633 137.445C238.99 138.714 238.187 139.738 237.062 140.799C236.584 141.226 236.09 141.79 235.937 142.286L239.696 141.229L239.981 142.239L234.742 143.712L234.657 143.363C234.287 142.045 235.02 141.2 236.281 139.914C237.036 139.144 237.515 138.53 237.314 137.815C237.109 137.088 236.43 136.8 235.629 137.026C234.754 137.272 234.437 138.039 234.659 138.828L233.34 139.198ZM244.195 137.264C245.146 137.382 245.793 137.746 246.004 138.498C246.389 139.866 245.203 140.944 243.834 141.329C242.442 141.72 240.901 141.396 240.519 140.04C240.301 139.263 240.701 138.605 241.418 138.031C240.583 137.947 240.102 137.563 239.901 136.848C239.534 135.542 240.509 134.563 241.828 134.192C243.184 133.811 244.514 134.142 244.881 135.448C245.082 136.163 244.809 136.799 244.195 137.264ZM242.68 137.224C243.408 137.02 243.767 136.453 243.597 135.849C243.427 135.245 242.79 135.012 242.112 135.203C241.41 135.4 241.034 135.958 241.194 136.525C241.367 137.141 242.003 137.415 242.68 137.224ZM243.55 140.318C244.364 140.089 244.843 139.476 244.659 138.823C244.441 138.046 243.647 137.87 242.92 138.075C242.168 138.286 241.629 138.877 241.837 139.616C242.031 140.306 242.761 140.54 243.55 140.318ZM250.727 139.351C248.68 139.926 247.257 138.744 246.686 136.71C246.103 134.639 246.732 132.853 248.741 132.288C250.775 131.717 252.231 132.97 252.799 134.991C253.378 137.05 252.736 138.786 250.727 139.351ZM251.505 135.355C251.113 133.962 250.203 132.995 249.032 133.324C247.836 133.66 247.59 135.006 247.967 136.35C248.345 137.693 249.232 138.721 250.453 138.377C251.661 138.038 251.89 136.723 251.505 135.355ZM262.671 132.828C263.15 134.529 262.535 136.031 260.846 136.506C259.959 136.756 259.291 136.651 258.711 136.149L259.494 138.935L258.261 139.281L256.113 131.639L257.21 131.331L257.512 132.217C257.794 131.326 258.198 130.92 259.197 130.639C260.91 130.157 262.207 131.176 262.671 132.828ZM258.135 134.103C258.447 135.212 259.29 135.893 260.35 135.595C261.423 135.293 261.754 134.296 261.439 133.174C261.134 132.089 260.309 131.377 259.248 131.675C258.151 131.984 257.834 133.03 258.135 134.103ZM265.748 132.747C265.963 133.512 266.208 133.815 266.873 133.628C267.083 133.569 267.264 133.505 267.417 133.435L267.645 133.345L267.918 134.318L267.698 134.433C267.548 134.516 267.367 134.58 267.157 134.639C266.504 134.822 265.957 134.817 265.516 134.621C265.076 134.426 264.747 133.92 264.515 133.094L263.781 130.481L262.868 130.737L262.609 129.813L263.521 129.556L263.15 128.238L264.382 127.891L264.753 129.21L266.171 128.811L266.431 129.736L265.013 130.134L265.748 132.747ZM269.91 128.678C269.294 128.851 268.816 129.278 268.94 129.722C269.02 130.005 269.229 130.133 269.586 130.126C270.592 130.109 271.49 129.896 272.209 130.04C272.796 130.141 273.216 130.501 273.386 131.105C273.729 132.326 272.605 133.2 271.286 133.571C270.017 133.928 268.595 133.743 268.258 132.547L269.516 132.194C269.68 132.732 270.408 132.767 271.012 132.597C271.604 132.431 272.279 132.042 272.134 131.524C272.047 131.216 271.773 131.093 271.397 131.079C270.41 131.024 269.86 131.338 268.848 131.144C268.245 131.034 267.841 130.683 267.671 130.079C267.355 128.957 268.305 128.078 269.637 127.704C270.968 127.33 272.259 127.712 272.588 128.882L271.319 129.239C271.163 128.685 270.453 128.525 269.91 128.678Z" fill="black" fill-opacity="0.6"/>
<rect x="61.8662" y="215.398" width="250.18" height="46.6171" rx="14.5678" transform="rotate(-15.7029 61.8662 215.398)" fill="#FCC11A" fill-opacity="0.25"/>
<rect x="62.3154" y="215.65" width="249.452" height="45.8887" rx="14.2036" transform="rotate(-15.7029 62.3154 215.65)" stroke="#FCC11A" stroke-opacity="0.67" stroke-width="0.728392"/>
<g clip-path="url(#clip4_124_5493)">
<path d="M85.7715 221.766C85.6295 221.987 84.9785 225.323 84.9785 225.323L85.1254 230.051L89.2788 228.461C89.2788 228.461 90.9711 220.869 91.0001 220.697C91.0502 220.384 91.0865 220.251 90.5974 220.388C90.1078 220.524 85.9042 221.558 85.7715 221.766Z" fill="#0D6E28"/>
<path d="M89.903 227.991C89.6589 227.936 83.3835 229.595 83.2959 229.848C83.2169 230.078 83.5766 231.069 83.6615 231.175C83.8118 231.36 86.0482 231.611 86.0482 231.611L86.1906 232.118C86.1906 232.118 86.3431 232.135 87.5141 231.806C88.6851 231.477 88.9015 231.352 88.9015 231.352L88.7733 230.862C88.7733 230.862 90.2634 229.474 90.3196 229.324C90.3712 229.198 90.1472 228.045 89.903 227.991ZM88.5409 230.103C88.5409 230.103 88.4974 229.854 88.3597 229.828C88.2215 229.801 86.1331 230.399 85.9708 230.454C85.8084 230.509 85.8912 230.804 85.8912 230.804L84.3871 230.48L84.2992 230.255L89.2045 228.904L89.3028 229.213L88.5409 230.103Z" fill="#1F4B4C"/>
<path d="M86.3557 230.605C86.1909 230.652 86.1186 230.872 86.2014 231.167C86.2793 231.444 86.438 231.645 86.6432 231.574C86.8383 231.508 86.8625 231.231 86.7825 231C86.6876 230.729 86.5643 230.547 86.3557 230.605Z" fill="#FDFFFF"/>
<path d="M83.1277 239.126C84.3086 243.327 88.6057 244.004 91.1106 243.219C94.0293 242.304 96.5674 239.18 95.1795 235.246C93.877 231.555 90.166 230.661 87.4057 231.46C84.197 232.387 82.0962 235.457 83.1277 239.126Z" fill="#9E3110"/>
<path d="M90.7396 242.51C90.6958 242.522 90.6502 242.535 90.6059 242.546C89.2788 242.871 87.8035 242.751 86.5946 242.098C85.3009 241.398 84.3229 240.328 83.9167 238.897C82.8503 235.138 85.6853 232.848 87.7591 232.265L87.7766 232.26C90.5902 231.482 93.6085 232.9 94.504 235.843C94.9027 237.153 94.7551 238.701 93.989 240.04C93.2746 241.286 91.9509 242.169 90.7396 242.51Z" fill="#F8932A"/>
<path d="M78.1064 223.822C78.0246 223.955 84.3619 230.288 84.3619 230.288C84.3619 230.288 85.0958 230.18 86.6809 229.75C88.2661 229.319 89.0201 228.994 89.0201 228.994C89.0201 228.994 83.6111 222.356 83.3935 222.336C83.2863 222.324 81.9816 222.676 80.7067 223.019C79.4296 223.361 78.184 223.694 78.1064 223.822Z" fill="#08D450"/>
<path d="M85.9369 233.657C85.6194 233.51 84.5027 234.537 84.0129 236.307C83.6847 237.494 83.9973 238.808 84.3942 238.719C84.791 238.63 84.4245 237.347 84.9588 235.984C85.6061 234.344 86.396 233.87 85.9369 233.657Z" fill="#FEFFFA"/>
<path d="M88.0323 232.983C87.6904 233.079 87.7928 235.488 87.4522 235.885C87.1116 236.281 84.8664 236.625 84.9276 236.937C84.9888 237.249 86.9812 238.058 87.3039 238.472C87.6266 238.887 87.1988 241.267 87.5364 241.392C87.8723 241.517 89.213 239.564 89.7968 239.4C90.4051 239.229 92.4104 240.347 92.6115 240.06C92.8236 239.758 91.3645 237.959 91.3709 237.45C91.379 236.941 92.9992 235.403 92.7956 234.969C92.5916 234.532 90.4794 235.497 89.9658 235.231C89.4521 234.965 88.4004 232.879 88.0323 232.983Z" fill="#F45C2E"/>
</g>
<path d="M109.116 219.909L111.945 222.315C112.045 222.413 112.128 222.531 112.193 222.667C112.256 222.794 112.303 222.913 112.334 223.022L112.498 222.976C112.467 222.867 112.446 222.741 112.433 222.599C112.418 222.449 112.428 222.306 112.462 222.169L113.622 218.642L115.326 218.163L113.436 223.843L114.579 227.907L113.128 228.315L111.985 224.251L107.412 220.388L109.116 219.909ZM115.669 224.196C115.537 223.724 115.481 223.268 115.502 222.826C115.523 222.384 115.624 221.984 115.805 221.624C115.991 221.254 116.264 220.932 116.623 220.659C116.979 220.377 117.423 220.162 117.953 220.013C118.491 219.861 118.982 219.814 119.425 219.871C119.874 219.917 120.27 220.051 120.613 220.272C120.963 220.483 121.262 220.771 121.51 221.137C121.758 221.503 121.949 221.922 122.081 222.393C122.214 222.864 122.269 223.321 122.248 223.762C122.227 224.204 122.123 224.61 121.937 224.98C121.757 225.34 121.488 225.66 121.132 225.942C120.781 226.213 120.336 226.424 119.798 226.576C119.268 226.725 118.778 226.776 118.329 226.73C117.878 226.675 117.478 226.543 117.128 226.332C116.784 226.111 116.489 225.817 116.24 225.451C115.992 225.085 115.802 224.667 115.669 224.196ZM117.108 223.791C117.279 224.397 117.56 224.849 117.953 225.147C118.343 225.437 118.841 225.497 119.447 225.326C120.052 225.156 120.446 224.845 120.628 224.395C120.808 223.936 120.813 223.403 120.642 222.797C120.472 222.192 120.192 221.744 119.802 221.454C119.409 221.156 118.91 221.092 118.304 221.262C117.698 221.432 117.305 221.747 117.126 222.206C116.944 222.657 116.938 223.185 117.108 223.791ZM124.489 222.274C124.567 222.552 124.665 222.77 124.782 222.928C124.899 223.085 125.021 223.196 125.148 223.26C125.283 223.322 125.419 223.352 125.554 223.35C125.69 223.349 125.812 223.332 125.922 223.302C126.25 223.209 126.511 223.054 126.704 222.837C126.903 222.608 127.046 222.359 127.134 222.089C127.219 221.811 127.258 221.532 127.252 221.252C127.252 220.962 127.221 220.703 127.157 220.476L126.397 217.775L127.836 217.37L129.61 223.681L128.172 224.085L127.941 223.265C127.842 222.912 127.803 222.646 127.825 222.467C127.845 222.28 127.881 222.115 127.932 221.974L127.777 221.908C127.695 222.131 127.623 222.392 127.562 222.691C127.498 222.981 127.402 223.271 127.275 223.561C127.148 223.851 126.969 224.119 126.739 224.366C126.506 224.604 126.175 224.783 125.746 224.904C125.552 224.958 125.335 224.992 125.093 225.005C124.854 225.027 124.617 224.99 124.381 224.892C124.153 224.793 123.937 224.622 123.733 224.38C123.526 224.129 123.355 223.764 123.221 223.285L122.018 219.006L123.456 218.601L124.489 222.274Z" fill="black"/>
<path opacity="0.8" d="M247.648 186.627C247.225 185.123 248.222 183.845 249.652 183.443C251.119 183.031 252.541 183.455 252.94 184.873C253.297 186.143 252.494 187.166 251.369 188.227C250.891 188.654 250.398 189.219 250.244 189.714L254.004 188.657L254.288 189.668L249.049 191.14L248.965 190.792C248.594 189.473 249.327 188.628 250.589 187.343C251.343 186.572 251.822 185.959 251.621 185.244C251.417 184.517 250.737 184.229 249.936 184.454C249.061 184.7 248.745 185.467 248.966 186.256L247.648 186.627ZM258.502 184.692C259.453 184.811 260.1 185.174 260.312 185.926C260.696 187.294 259.51 188.373 258.142 188.757C256.749 189.149 255.208 188.824 254.827 187.468C254.608 186.692 255.009 186.034 255.725 185.46C254.89 185.375 254.41 184.992 254.209 184.277C253.841 182.97 254.816 181.991 256.135 181.62C257.491 181.239 258.821 181.57 259.188 182.877C259.389 183.592 259.116 184.227 258.502 184.692ZM256.988 184.653C257.715 184.448 258.074 183.882 257.905 183.278C257.735 182.674 257.097 182.441 256.419 182.631C255.717 182.829 255.342 183.386 255.501 183.953C255.674 184.57 256.31 184.843 256.988 184.653ZM257.858 187.746C258.671 187.518 259.15 186.904 258.967 186.251C258.748 185.474 257.954 185.299 257.227 185.503C256.475 185.715 255.936 186.305 256.144 187.045C256.338 187.735 257.069 187.968 257.858 187.746ZM265.034 186.78C262.988 187.355 261.565 186.172 260.993 184.138C260.411 182.068 261.039 180.282 263.048 179.717C265.082 179.145 266.538 180.398 267.107 182.42C267.685 184.478 267.043 186.215 265.034 186.78ZM265.812 182.784C265.421 181.391 264.51 180.423 263.339 180.752C262.144 181.088 261.897 182.435 262.275 183.778C262.653 185.122 263.54 186.149 264.76 185.806C265.968 185.466 266.197 184.152 265.812 182.784ZM276.979 180.256C277.457 181.957 276.842 183.46 275.153 183.935C274.266 184.184 273.598 184.079 273.018 183.577L273.801 186.363L272.569 186.71L270.42 179.067L271.517 178.759L271.819 179.645C272.101 178.754 272.506 178.348 273.504 178.067C275.217 177.586 276.514 178.604 276.979 180.256ZM272.443 181.531C272.755 182.641 273.598 183.321 274.658 183.023C275.73 182.722 276.062 181.724 275.746 180.603C275.441 179.518 274.616 178.806 273.556 179.104C272.459 179.412 272.141 180.459 272.443 181.531ZM280.055 180.176C280.27 180.94 280.515 181.244 281.181 181.056C281.39 180.998 281.572 180.933 281.725 180.864L281.952 180.773L282.226 181.747L282.006 181.862C281.856 181.944 281.674 182.008 281.465 182.067C280.811 182.251 280.264 182.245 279.824 182.05C279.383 181.854 279.055 181.348 278.823 180.522L278.088 177.909L277.176 178.166L276.916 177.241L277.828 176.985L277.457 175.666L278.69 175.319L279.061 176.638L280.478 176.24L280.738 177.164L279.321 177.563L280.055 180.176ZM284.218 176.106C283.601 176.279 283.123 176.706 283.248 177.15C283.327 177.434 283.536 177.561 283.893 177.554C284.899 177.537 285.797 177.325 286.516 177.468C287.103 177.569 287.524 177.93 287.693 178.534C288.036 179.754 286.912 180.629 285.593 180.999C284.324 181.356 282.902 181.171 282.566 179.975L283.823 179.622C283.988 180.161 284.716 180.196 285.32 180.026C285.911 179.859 286.587 179.47 286.441 178.952C286.354 178.644 286.081 178.522 285.704 178.508C284.718 178.453 284.168 178.767 283.156 178.573C282.553 178.463 282.148 178.111 281.978 177.507C281.663 176.385 282.613 175.507 283.944 175.132C285.275 174.758 286.566 175.14 286.895 176.311L285.626 176.668C285.47 176.113 284.76 175.954 284.218 176.106Z" fill="black" fill-opacity="0.6"/>
</g>
<rect x="0.493331" y="81.742" width="300.2" height="236.2" rx="24.3653" transform="rotate(-15.7029 0.493331 81.742)" stroke="#FCC11A" stroke-opacity="0.3" stroke-width="0.8"/>
<defs>
<clipPath id="clip0_124_5493">
<rect y="81.4652" width="301" height="237" rx="24.7653" transform="rotate(-15.7029 0 81.4652)" fill="white"/>
</clipPath>
<clipPath id="clip1_124_5493">
<rect width="23.3085" height="23.3085" fill="white" transform="translate(248.334 40.4003) rotate(-15.7029)"/>
</clipPath>
<clipPath id="clip2_124_5493">
<rect width="23.3085" height="23.3085" fill="white" transform="translate(50.0281 140.037) rotate(-15.7029)"/>
</clipPath>
<clipPath id="clip3_124_5493">
<rect width="23.3085" height="23.3085" fill="white" transform="translate(60.2793 176.5) rotate(-15.7029)"/>
</clipPath>
<clipPath id="clip4_124_5493">
<rect width="23.3085" height="23.3085" fill="white" transform="translate(73.4348 224.252) rotate(-15.7029)"/>
</clipPath>
</defs>
</svg>
