<svg width="366" height="288" viewBox="0 0 366 288" fill="none" xmlns="http://www.w3.org/2000/svg">
<g filter="url(#filter0_d_124_5454)">
<rect x="76.5786" y="36.8574" width="245" height="164" rx="21" transform="rotate(2.34884 76.5786 36.8574)" fill="white" fill-opacity="0.9" shape-rendering="crispEdges"/>
<rect x="77.5368" y="37.8975" width="243" height="162" rx="20" transform="rotate(2.34884 77.5368 37.8975)" stroke="#FEFFFA" stroke-width="2" shape-rendering="crispEdges"/>
<path d="M94.0267 60.3464L97.3599 60.4831C98.367 60.5244 99.1164 60.7994 99.6079 61.308C100.108 61.8169 100.337 62.5549 100.298 63.5221C100.258 64.4813 99.969 65.194 99.4294 65.6603C98.8978 66.1269 98.1285 66.3395 97.1213 66.2982L95.155 66.2176L95.0492 68.7954L93.6824 68.7393L94.0267 60.3464ZM97.0981 65.1083C97.6336 65.1303 98.0665 65.0199 98.3967 64.7772C98.727 64.5346 98.9052 64.0935 98.9314 63.454C98.9445 63.1343 98.9116 62.8647 98.8325 62.6453C98.7614 62.4262 98.6527 62.2456 98.5064 62.1035C98.3601 61.9614 98.1762 61.8577 97.9547 61.7926C97.7415 61.7198 97.503 61.678 97.2392 61.6672L95.3448 61.5895L95.2037 65.0306L97.0981 65.1083ZM106.135 69.2501C106.021 68.9012 105.954 68.5822 105.934 68.2931C105.922 67.9964 105.924 67.6681 105.939 67.3084C105.952 66.9887 105.91 66.7348 105.814 66.5467C105.717 66.3586 105.583 66.217 105.411 66.1218C105.247 66.019 105.054 65.951 104.831 65.9179C104.608 65.8847 104.377 65.8632 104.137 65.8534L102.386 65.7816L102.251 69.0908L100.872 69.0342L101.216 60.6413L104.693 60.7839C105.213 60.8052 105.65 60.8832 106.005 61.0179C106.368 61.1449 106.657 61.3168 106.872 61.5339C107.095 61.7512 107.253 62.0099 107.345 62.3099C107.437 62.6019 107.476 62.9238 107.461 63.2755C107.448 63.6032 107.384 63.8928 107.269 64.1443C107.163 64.3962 107.014 64.6063 106.823 64.7746C106.641 64.9352 106.423 65.0584 106.172 65.1442C105.928 65.2223 105.663 65.2554 105.375 65.2436L105.368 65.3995C105.528 65.406 105.719 65.4339 105.941 65.483C106.172 65.5325 106.388 65.6255 106.591 65.7619C106.801 65.8986 106.973 66.0898 107.108 66.3355C107.25 66.5736 107.313 66.8924 107.296 67.2921C107.28 67.6838 107.282 68.0361 107.301 68.3492C107.329 68.6545 107.412 68.9742 107.55 69.3082L106.135 69.2501ZM104.401 64.6752C104.889 64.6872 105.285 64.5914 105.59 64.3877C105.903 64.1764 106.07 63.8189 106.09 63.3153C106.111 62.8197 105.969 62.4776 105.664 62.289C105.36 62.0923 104.936 61.9829 104.393 61.9606L102.546 61.8849L102.435 64.5946L104.401 64.6752ZM108.639 60.9458L110.006 61.0019L109.662 69.3948L108.295 69.3387L108.639 60.9458ZM110.758 61.0327L116.561 61.2707L116.512 62.4577L112.225 68.3109L116.433 68.4835L116.385 69.6705L110.533 69.4305L110.582 68.2435L114.87 62.3903L110.709 62.2197L110.758 61.0327ZM117.468 61.3079L122.923 61.5317L122.875 62.7067L118.787 62.539L118.695 64.7811L122.268 64.9277L122.219 66.1147L118.646 65.9681L118.539 68.5699L122.628 68.7376L122.579 69.9246L117.124 69.7009L117.468 61.3079ZM132.259 63.524C132.257 63.5799 132.247 63.7036 132.232 63.8952C132.216 64.0867 132.195 64.31 132.168 64.5651C132.142 64.8123 132.107 65.071 132.064 65.3415C132.021 65.612 131.967 65.854 131.902 66.0675L130.554 70.2517L128.551 70.1696L126.749 61.6886L128.152 61.7462L129.378 67.5733C129.405 67.7025 129.423 67.8434 129.433 67.9959C129.451 68.1408 129.461 68.2813 129.464 68.4175C129.474 68.5541 129.481 68.6745 129.485 68.7787C129.489 68.8749 129.49 68.9431 129.489 68.983L129.633 68.9889C129.644 68.9173 129.658 68.7698 129.675 68.5463C129.692 68.3228 129.739 68.0605 129.815 67.7594L131.437 61.8809L133.368 61.9601L134.503 67.9517C134.555 68.258 134.58 68.5233 134.579 68.7474C134.577 68.9716 134.579 69.1198 134.584 69.192L134.728 69.1979C134.73 69.158 134.737 69.0902 134.749 68.9946C134.761 68.891 134.774 68.7714 134.787 68.6359C134.809 68.5007 134.831 68.3614 134.853 68.2182C134.883 68.0673 134.917 67.9286 134.954 67.802L136.653 62.0949L138.056 62.1524L135.565 70.4573L133.563 70.3752L132.562 66.0945C132.515 65.8764 132.481 65.6308 132.46 65.3577C132.439 65.0847 132.426 64.8239 132.42 64.5754C132.414 64.319 132.412 64.0947 132.411 63.9025C132.411 63.7104 132.412 63.5863 132.415 63.5304L132.259 63.524ZM142.024 70.8423C141.352 70.8148 140.769 70.6868 140.274 70.4583C139.779 70.2298 139.371 69.9208 139.051 69.5314C138.739 69.1422 138.509 68.6805 138.363 68.146C138.225 67.6039 138.17 67.0091 138.196 66.3617C138.223 65.7142 138.327 65.13 138.508 64.609C138.698 64.0803 138.965 63.6349 139.308 63.2726C139.659 62.9107 140.09 62.6362 140.603 62.449C141.115 62.2618 141.706 62.182 142.378 62.2096C143.057 62.2374 143.641 62.3654 144.128 62.5936C144.623 62.8221 145.026 63.1309 145.339 63.52C145.659 63.9095 145.888 64.3752 146.026 64.9174C146.172 65.4518 146.232 66.0427 146.205 66.6902C146.179 67.3377 146.071 67.9257 145.881 68.4544C145.699 68.9754 145.433 69.4168 145.082 69.7788C144.739 70.141 144.311 70.4157 143.799 70.6029C143.295 70.7904 142.703 70.8702 142.024 70.8423ZM142.329 63.3966C141.434 63.3598 140.759 63.6164 140.304 64.1662C139.849 64.708 139.602 65.4585 139.563 66.4177C139.524 67.3769 139.708 68.1491 140.117 68.7344C140.525 69.3116 141.177 69.6186 142.072 69.6553C142.52 69.6737 142.911 69.6176 143.244 69.4872C143.586 69.3491 143.871 69.1526 144.097 68.8977C144.324 68.6347 144.497 68.3136 144.617 67.9342C144.745 67.5471 144.819 67.1137 144.839 66.6341C144.858 66.1545 144.82 65.7206 144.724 65.3323C144.636 64.9364 144.49 64.6021 144.285 64.3295C144.08 64.0489 143.813 63.8297 143.483 63.6721C143.161 63.5068 142.777 63.4149 142.329 63.3966ZM148.182 63.985L148.036 64.039C148.066 64.0803 148.102 64.1858 148.143 64.3557C148.193 64.5178 148.237 64.7118 148.275 64.9376C148.314 65.1633 148.345 65.3968 148.367 65.6379C148.397 65.8793 148.408 66.1 148.4 66.2998L148.208 70.9759L146.829 70.9193L147.173 62.5264L148.9 62.5972L152.391 69.7302L152.537 69.6762C152.515 69.6352 152.479 69.5337 152.429 69.3715C152.388 69.2017 152.348 69.0039 152.309 68.7781C152.271 68.5523 152.236 68.3187 152.206 68.0773C152.184 67.8282 152.177 67.6037 152.186 67.4039L152.377 62.7398L153.744 62.7959L153.4 71.1888L151.685 71.1185L148.182 63.985Z" fill="black" fill-opacity="0.6"/>
<g clip-path="url(#clip0_124_5454)">
<path d="M286.712 78.5851C286.531 82.9882 282.965 82.8419 278.525 82.6598C274.086 82.4777 270.52 82.3315 270.7 77.9284C270.881 73.5253 274.779 66.4681 279.182 66.6487C283.585 66.8293 286.894 74.1457 286.712 78.5851Z" fill="#DBB471"/>
<path opacity="0.5" d="M286.712 78.5851C286.773 77.0932 286.447 75.2573 285.791 73.4808C285.89 74.6148 285.517 76.6043 282.029 77.2267C277.073 78.0804 279.564 79.5677 277.627 79.6705C275.984 79.7489 271.644 78.9148 270.872 76.4045C270.777 76.9474 270.684 77.4538 270.663 77.9633C270.52 82.3315 274.122 82.4792 278.525 82.6598C282.929 82.8404 286.531 82.9882 286.712 78.5851Z" fill="#89664C"/>
<path d="M280.939 76.2343C280.824 75.5005 280.214 75.2568 279.561 75.1935L279.602 74.1747C279.781 74.2549 279.995 74.373 280.136 74.4882C280.42 74.682 280.73 74.2209 280.447 74.027C280.198 73.871 279.913 73.7135 279.626 73.5924L279.675 72.3916C279.69 72.0277 279.145 72.0053 279.13 72.3692L279.086 73.4245C278.797 73.3762 278.506 73.3642 278.213 73.3887C278.187 73.1324 278.125 72.8747 278.062 72.617C278.005 72.2502 277.453 72.3733 277.547 72.7417C277.609 72.9994 277.635 73.2556 277.698 73.5133C277.661 73.5118 277.661 73.5118 277.623 73.5467C276.884 73.808 276.381 74.5164 276.898 75.2301C277.139 75.5681 277.462 75.6907 277.823 75.7784C277.84 76.2529 277.821 76.726 277.802 77.1991C277.553 77.0431 277.343 76.8158 277.169 76.6264C276.925 76.3612 276.544 76.7465 276.752 77.0102C277.065 77.3875 277.418 77.6572 277.775 77.8541C277.758 78.2543 277.778 78.6561 277.798 79.0579C277.82 79.4233 278.366 79.4457 278.344 79.0803C278.323 78.7149 278.3 78.3859 278.315 78.022C278.531 78.0673 278.75 78.0763 278.968 78.0853C278.99 78.4506 279.011 78.816 279.031 79.2178C279.052 79.5832 279.598 79.6056 279.577 79.2402C279.557 78.8384 279.537 78.4366 279.518 77.9985C280.331 77.7402 281.084 77.1514 280.939 76.2343ZM279.064 73.9703L279.015 75.1712C278.833 75.1637 278.686 75.1941 278.54 75.1881L278.358 75.1807L278.303 73.8662C278.557 73.8766 278.811 73.9235 279.064 73.9703ZM277.706 75.081C277.562 75.0387 277.421 74.9235 277.28 74.8084C276.966 74.4675 277.451 74.1958 277.748 74.0621C277.769 74.4275 277.792 74.7565 277.814 75.1219C277.777 75.1204 277.741 75.1189 277.706 75.081ZM278.811 77.4592C278.628 77.4881 278.484 77.4457 278.34 77.4034C278.326 76.8561 278.348 76.3102 278.372 75.728C278.591 75.737 278.81 75.7095 279.029 75.7185C279.005 76.3007 279.019 76.848 278.995 77.4303C278.921 77.4637 278.884 77.4622 278.811 77.4592ZM280.029 77.1082C279.879 77.2114 279.694 77.2767 279.545 77.3435C279.531 76.7962 279.552 76.2867 279.575 75.7409L279.756 75.7483C280.442 75.9222 280.592 76.6939 280.029 77.1082Z" fill="#89664C"/>
<path d="M279.313 81.2342L278.476 81.1998L278.416 82.6554L281.726 84.6136L289.464 82.5618L289.517 81.2882L286.782 79.5358L279.313 81.2342Z" fill="#699635"/>
<path d="M278.619 80.3673C278.619 80.3673 279.434 81.8223 281.858 83.161C281.858 83.161 285.723 83.1373 289.536 80.8151C289.536 80.8151 287.432 79.6718 286.87 78.2636C286.87 78.2636 285.331 80.2417 278.619 80.3673Z" fill="#83BF4F"/>
<path d="M276.949 81.1008L277.751 81.0972L277.805 82.4481L274.557 84.3196L267.019 82.3702L266.959 81.1648L269.616 79.4877L276.949 81.1008Z" fill="#699635"/>
<path d="M277.602 80.2892C277.602 80.2892 276.779 81.677 274.432 82.9294C274.432 82.9294 270.679 82.8848 266.94 80.7267C266.94 80.7267 269.026 79.6458 269.556 78.2824C269.556 78.2824 271.082 80.1676 277.602 80.2892Z" fill="#83BF4F"/>
<path d="M275.766 80.6148C275.766 80.6148 275.645 80.9014 276.153 80.9587L274.76 82.0316C274.76 82.0316 273.963 81.926 273.758 82.4643C273.758 82.4643 270.498 81.9661 268.426 80.9334C268.426 80.9334 268.877 80.6238 268.34 80.3831C268.34 80.3831 268.976 79.9718 269.138 79.5775C269.138 79.5775 269.717 79.6742 269.917 79.245C269.991 79.2115 272.121 80.6111 275.766 80.6148Z" stroke="#699635" stroke-width="0.364196" stroke-miterlimit="10"/>
<path d="M270.141 80.8944C270.523 80.9101 270.841 80.711 270.852 80.4497C270.863 80.1884 270.562 79.9639 270.18 79.9483C269.798 79.9326 269.48 80.1317 269.469 80.393C269.459 80.6542 269.76 80.8787 270.141 80.8944Z" fill="#699635"/>
<path d="M273.896 79.9913C273.896 79.9913 273.015 81.0487 271.134 82.466L271.203 83.453L269.941 83.1096L269.912 82.0514C269.912 82.0514 271.838 80.4172 272.272 79.5967C272.236 79.5952 272.882 79.8404 273.896 79.9913ZM282.313 80.0814C282.313 80.0814 282.604 80.9682 285.013 82.6708L284.97 83.7261L286.407 83.3476L286.452 82.256C286.452 82.256 284.791 80.985 283.821 79.7423L282.313 80.0814Z" fill="#F9F3D9"/>
<path d="M280.286 78.8319L279.487 78.7627L279.353 80.2517L282.507 82.4587L290.197 80.6965L290.287 79.3879L287.707 77.4231L280.286 78.8319Z" fill="#699635"/>
<path d="M279.669 77.8953C279.669 77.8953 280.406 79.4565 282.715 80.9363C282.715 80.9363 286.499 81.0915 290.343 78.9163C290.343 78.9163 288.318 77.6304 287.87 76.1176C287.87 76.1176 286.222 78.0912 279.669 77.8953Z" fill="#83BF4F"/>
<path d="M281.29 78.3628C281.29 78.3628 281.46 78.6613 280.873 78.7466L282.352 80.0101C282.352 80.0101 283.234 79.8276 283.504 80.349C283.504 80.349 287.17 79.8433 288.88 79.0386C288.88 79.0386 288.345 78.7615 288.904 78.4564C288.904 78.4564 288.271 77.8837 288.031 77.5093C288.031 77.5093 287.405 77.6659 287.096 77.2158C287.094 77.2522 285.737 78.3629 281.29 78.3628Z" stroke="#699635" stroke-width="0.364196" stroke-miterlimit="10"/>
<path d="M284.054 79.3874C283.901 79.5634 283.425 79.6167 283.029 79.4912C282.633 79.3656 282.462 79.1034 282.615 78.9274C282.768 78.7514 283.244 78.6981 283.64 78.8236C284.036 78.9492 284.209 79.175 284.054 79.3874Z" fill="#699635"/>
<path d="M283.392 77.7564C283.392 77.7564 284.218 78.9567 286.009 80.5975L285.928 81.6877L287.217 81.3761L287.301 80.2131C287.301 80.2131 285.483 78.316 285.046 77.4233C285.082 77.4248 284.453 77.6541 283.392 77.7564Z" fill="#F9F3D9"/>
<path d="M284.471 62.1271C284.38 64.3468 281.357 67.8314 279.137 67.7404C276.918 67.6493 274.176 64.2928 274.267 62.0731C274.358 59.8533 274.594 62.0865 276.814 62.1775C277.141 62.191 278.715 61.162 279.406 61.1903C279.879 61.2098 281.181 62.3566 281.908 62.3865C283.837 62.4656 284.539 60.4532 284.471 62.1271Z" fill="#DBB471"/>
<path d="M278.552 66.0032C278.328 66.1398 277.277 65.9874 276.939 66.2287C276.489 66.5383 277.077 67.3278 276.62 67.783C275.711 68.6205 274.98 69.5746 275.176 70.1294C275.501 71.0904 276.303 68.426 276.879 69.4703C277.456 70.5145 277.417 68.7998 278.327 69.7119C279.238 70.6241 278.537 68.1532 279.404 69.2458C280.27 70.3384 280.257 71.5407 280.912 71.5676C281.676 71.5989 280.23 68.66 281.22 69.3932C282.211 70.1264 283.349 69.9179 282.373 68.8208C282.059 68.4799 281.647 67.8798 281.158 67.3494C280.984 67.16 281.168 66.2199 280.992 66.0669C280.781 65.876 280.211 66.4358 279.998 66.3177C279.57 66.0814 279.699 66.4877 279.039 66.57C278.597 66.6976 279.001 65.73 278.552 66.0032Z" fill="#89664C"/>
<path d="M274.28 67.9785C275.754 66.6904 278.306 67.5605 279.808 68.2782C281.273 68.9944 282.268 66.9575 281.365 65.8634C280.844 65.2224 279.941 65.9144 279.596 66.3376C279.214 66.7594 278.903 67.2205 278.485 67.6407C277.876 68.2719 276.479 67.6678 276.953 66.776C277.465 65.8493 279.422 67.0231 280.069 67.2319C281.328 67.648 282.668 67.8488 283.961 67.428C284.404 67.3003 284.252 66.5651 283.808 66.7291C282.368 67.1803 280.962 66.7946 279.634 66.3027C278.951 66.056 277.883 65.429 277.142 65.7267C275.028 66.6241 276.841 69.5052 278.633 68.4852C279.043 68.2468 279.315 67.857 279.621 67.5051C279.812 67.2942 280.778 65.9487 280.968 66.6491C281.062 67.0174 280.926 67.668 280.521 67.7607C280.262 67.8594 279.768 67.4746 279.516 67.3914C279.05 67.1901 278.583 67.0251 278.078 66.8951C276.744 66.5487 274.921 66.5469 273.826 67.4861C273.45 67.7623 273.939 68.2926 274.28 67.9785Z" fill="#E8E8E8"/>
<path d="M284.056 61.5633C283.68 61.8395 283 62.4312 281.908 62.3865C281.181 62.3566 279.879 61.2097 279.406 61.1903C278.714 61.162 277.141 62.1909 276.814 62.1775C275.613 62.1282 274.983 61.4828 274.666 61.2146C274.666 61.2146 274.999 62.8685 276.202 63.7562C277.088 64.3758 277.007 63.6799 277.507 63.0443C278.007 62.4087 278.348 62.0946 279.118 63.7665C279.517 64.6941 280.493 61.3443 281.103 62.4628C282.222 64.5134 282.703 63.4397 284.056 61.5633Z" fill="#89664C"/>
<path d="M286.047 80.5627L285.966 81.6529L287.254 81.3412L287.339 80.1783C287.337 80.2147 286.561 80.4744 286.047 80.5627ZM285.011 82.7072L284.968 83.7625L286.405 83.384L286.45 82.2924C286.415 82.2545 286.042 82.4579 285.011 82.7072ZM271.135 82.4297L271.203 83.453L269.941 83.1097L269.911 82.0514C269.875 82.0499 270.377 82.2528 271.135 82.4297Z" fill="#DBB471"/>
</g>
<path d="M94.3749 111.958L94.7619 102.523L92.2809 102.421L92.3888 99.7897L94.8699 99.8914L94.9871 97.0345L92.506 96.9327L92.6139 94.3013L95.095 94.403L95.4758 85.1179L100.626 85.3291L103.403 94.7438L107.2 94.8996L107.58 85.6144L111.302 85.7671L110.921 95.0522L113.365 95.1524L113.257 97.7838L110.813 97.6836L110.696 100.541L113.139 100.641L113.031 103.272L110.588 103.172L110.201 112.608L105.013 112.395L102.167 102.827L98.4459 102.674L98.0589 112.109L94.3749 111.958ZM98.5539 100.043L101.448 100.161L100.626 97.2658L98.5959 97.1825L98.5539 100.043ZM106.786 106.819L106.974 106.827L106.979 103.024L105.739 102.973L106.786 106.819ZM98.6662 94.5495L99.9067 94.6004L98.7936 90.5257L98.6432 90.5195L98.6662 94.5495ZM105.02 100.308L107.05 100.391L107.092 97.531L104.197 97.4122L105.02 100.308ZM119.019 102.085C120.303 100.372 122.022 99.7072 124.225 99.7976C128.263 99.9632 131.308 102.809 131.14 106.921L131.138 106.958C130.965 111.179 127.328 113.788 123.363 113.625C117.233 113.374 114.877 108.938 115.135 102.661C115.397 96.2731 117.994 92.114 123.941 92.3579C127.943 92.5221 131.255 95.1584 131.113 98.6092L127.185 98.4481C127.256 96.7227 125.837 95.451 123.855 95.3697C120.404 95.2282 119.181 98.1566 119.04 101.571L119.019 102.085ZM123.046 110.597C125.432 110.695 127.118 109.036 127.206 106.907C127.305 104.484 125.533 102.867 123.33 102.776C120.981 102.68 119.226 104.226 119.129 106.575C119.039 108.778 120.733 110.502 123.046 110.597ZM134.123 117.56L135.976 109.142L140.308 109.319L136.95 117.676L134.123 117.56ZM143.872 100.42C144.056 95.9409 147.913 93.3412 152.172 93.5159C156.54 93.6951 160.045 96.1187 159.872 100.34C159.716 104.122 156.616 106.201 152.603 108.095C150.918 108.835 149.071 109.936 148.213 111.151L159.409 111.611L159.286 114.621L143.684 113.981L143.763 112.955C143.924 109.026 146.676 107.374 151.26 104.988C154.003 103.556 155.856 102.309 155.943 100.179C156.032 98.0134 154.435 96.624 152.048 96.5262C149.442 96.4193 147.897 98.2313 147.8 100.581L143.872 100.42ZM171.495 115.489C165.401 115.239 162.57 110.747 162.819 104.69C163.072 98.5228 166.374 94.2088 172.358 94.4542C178.415 94.7027 181.274 99.4165 181.027 105.437C180.776 111.568 177.479 115.735 171.495 115.489ZM177.173 105.279C177.343 101.131 175.719 97.681 172.232 97.5379C168.671 97.3919 166.801 100.845 166.637 104.847C166.473 108.848 167.98 112.44 171.614 112.589C175.212 112.737 177.005 109.354 177.173 105.279ZM192.898 116.367C186.804 116.117 183.973 111.625 184.221 105.568C184.474 99.4006 187.777 95.0867 193.76 95.3321C199.818 95.5806 202.677 100.294 202.43 106.315C202.178 112.446 198.882 116.613 192.898 116.367ZM198.575 106.157C198.745 102.008 197.122 98.5588 193.634 98.4158C190.073 98.2697 188.203 101.723 188.039 105.725C187.875 109.726 189.382 113.318 193.017 113.467C196.614 113.615 198.408 110.232 198.575 106.157Z" fill="#D1701C"/>
<path d="M94.4566 127.342C94.3696 127.248 94.2486 127.192 94.1204 127.186C93.9921 127.181 93.867 127.227 93.7725 127.314L90.9237 129.938C90.8756 129.981 90.8366 130.033 90.8088 130.091C90.781 130.149 90.7651 130.212 90.7619 130.276C90.7587 130.34 90.7683 130.404 90.7902 130.465C90.8121 130.525 90.8458 130.581 90.8894 130.628C90.9329 130.675 90.9855 130.713 91.0439 130.74C91.1024 130.767 91.1656 130.782 91.2298 130.784C91.2941 130.786 91.3581 130.775 91.4182 130.752C91.4782 130.729 91.5331 130.695 91.5796 130.65L93.5689 128.818L93.3061 135.224C93.3008 135.353 93.3467 135.478 93.4337 135.572C93.5207 135.667 93.6417 135.723 93.77 135.728C93.8983 135.733 94.0234 135.687 94.1179 135.6C94.2123 135.513 94.2683 135.392 94.2736 135.264L94.5364 128.858L96.3688 130.847C96.4565 130.939 96.5767 130.992 96.7036 130.997C96.8304 131.001 96.9539 130.955 97.0472 130.869C97.1406 130.783 97.1965 130.663 97.2028 130.537C97.2091 130.41 97.1653 130.286 97.0809 130.191L94.4566 127.342Z" fill="#0E9F37"/>
<path d="M102.845 132.947L100.606 132.855L100.647 131.839L102.887 131.931L102.984 129.557L104.009 129.599L103.912 131.973L106.16 132.065L106.118 133.081L103.87 132.989L103.773 135.363L102.748 135.321L102.845 132.947ZM107.192 135.503L107.315 132.494L106.524 132.461L106.558 131.622L107.35 131.655L107.387 130.743L106.596 130.711L106.63 129.872L107.422 129.904L107.543 126.943L109.186 127.01L110.071 130.013L111.282 130.062L111.404 127.101L112.591 127.15L112.469 130.111L113.249 130.143L113.214 130.982L112.435 130.95L112.398 131.862L113.177 131.894L113.142 132.733L112.363 132.701L112.24 135.71L110.585 135.643L109.677 132.591L108.49 132.542L108.367 135.552L107.192 135.503ZM108.525 131.703L109.448 131.741L109.186 130.817L108.538 130.791L108.525 131.703ZM111.15 133.864L111.21 133.867L111.212 132.654L110.816 132.638L111.15 133.864ZM108.561 129.951L108.956 129.967L108.601 128.667L108.553 128.665L108.561 129.951ZM110.587 131.787L111.234 131.814L111.248 130.902L110.325 130.864L110.587 131.787ZM115.749 129.368L116.944 129.417L116.678 135.892L115.484 135.843L115.705 130.446C114.887 130.94 114.468 131.146 113.682 131.442L113.726 130.365C114.549 130.046 114.884 129.872 115.749 129.368ZM118.066 137.216L118.657 134.531L120.039 134.588L118.968 137.253L118.066 137.216ZM123.584 135.366C124.369 135.399 124.895 134.869 124.923 134.19C124.952 133.487 124.436 132.903 123.687 132.872C123.195 132.852 122.826 132.99 122.522 133.247L121.46 132.828L122.049 129.627L125.995 129.789L125.955 130.749L123.005 130.628L122.719 132.153C123.126 131.958 123.48 131.902 123.949 131.921C125.283 131.976 126.233 132.848 126.178 134.194L126.177 134.206C126.12 135.588 124.892 136.382 123.545 136.327C122.152 136.269 121.029 135.32 121.087 133.915L122.34 133.967C122.308 134.739 122.777 135.333 123.584 135.366ZM129.986 136.556C128.043 136.476 127.14 135.043 127.219 133.111C127.3 131.144 128.353 129.768 130.262 129.846C132.194 129.926 133.105 131.429 133.027 133.349C132.946 135.305 131.895 136.634 129.986 136.556ZM131.797 133.299C131.851 131.976 131.334 130.876 130.221 130.83C129.085 130.783 128.489 131.885 128.437 133.161C128.384 134.437 128.865 135.583 130.024 135.631C131.172 135.678 131.744 134.599 131.797 133.299ZM136.813 136.836C134.869 136.756 133.966 135.323 134.045 133.391C134.126 131.424 135.179 130.048 137.088 130.126C139.02 130.206 139.932 131.709 139.853 133.629C139.773 135.585 138.721 136.914 136.813 136.836ZM138.623 133.579C138.678 132.256 138.16 131.156 137.048 131.11C135.912 131.063 135.315 132.165 135.263 133.441C135.211 134.717 135.691 135.863 136.851 135.911C137.998 135.958 138.57 134.879 138.623 133.579Z" fill="#0E9F37"/>
<path d="M145.595 132.61L145.631 131.732L146.532 131.769C146.589 130.387 147.165 129.789 148.57 129.847C148.769 129.855 148.955 129.886 149.316 129.959L149.277 130.896C148.94 130.835 148.776 130.817 148.531 130.807C147.887 130.78 147.731 131.138 147.703 131.817L149.026 131.871L148.99 132.749L147.667 132.695L147.484 137.156L146.313 137.108L146.496 132.647L145.595 132.61ZM151.275 132.808C151.662 132.249 152.332 131.925 153.163 131.959L153.362 131.967L153.548 131.998L153.5 133.181L153.187 133.097C153.07 133.081 152.942 133.064 152.813 133.059C152.485 133.045 152.153 133.125 151.818 133.287C151.495 133.45 151.317 133.783 151.296 134.286L151.173 137.307L150.002 137.259L150.221 131.92L151.263 131.963L151.275 132.808ZM154.127 134.754C154.16 133.947 154.445 133.29 154.971 132.783C155.496 132.277 156.209 132.048 157.087 132.084C157.965 132.12 158.657 132.407 159.139 132.954C159.621 133.502 159.851 134.18 159.818 134.988C159.785 135.796 159.5 136.453 158.975 136.959C158.45 137.465 157.748 137.694 156.87 137.658L156.858 137.658C155.98 137.622 155.288 137.335 154.806 136.788C154.324 136.24 154.094 135.562 154.127 134.754ZM158.624 134.939C158.666 133.897 158.066 133.086 157.048 133.045C156.041 133.003 155.364 133.761 155.322 134.803C155.278 135.857 155.879 136.656 156.898 136.698C157.963 136.741 158.582 135.958 158.624 134.939ZM162.293 132.415L162.316 133.272C162.657 132.676 163.303 132.375 164.005 132.403C164.802 132.436 165.408 132.801 165.688 133.422C166.09 132.77 166.827 132.519 167.577 132.55C168.947 132.606 169.519 133.509 169.46 134.961L169.333 138.052L168.162 138.004L168.289 134.913C168.325 134.035 167.959 133.527 167.233 133.498C166.448 133.465 165.923 133.972 165.889 134.815L165.762 137.906L164.591 137.858L164.718 134.767C164.754 133.888 164.388 133.381 163.673 133.352C162.877 133.319 162.364 133.814 162.329 134.669L162.202 137.76L161.031 137.712L161.25 132.372L162.293 132.415ZM174.832 130.947L174.532 138.266L173.361 138.217L173.661 130.899L174.832 130.947ZM178.794 133.01C180.363 133.074 181.227 133.731 181.163 135.3L181.078 137.361C181.063 137.736 181.075 138.006 181.115 138.184L181.186 138.445L181.183 138.538L180.012 138.49C179.981 138.372 179.902 138.028 179.911 137.806L179.739 137.998C179.383 138.382 178.801 138.558 177.993 138.525C176.74 138.473 175.921 137.865 175.966 136.764C176.015 135.57 177.13 135.252 178.547 135.31L179.987 135.369L180.001 135.042C180.031 134.304 179.551 134.003 178.754 133.97C178.122 133.944 177.481 134.129 177.458 134.691L176.264 134.642C176.284 134.162 176.511 133.761 176.958 133.439C177.394 133.117 178.009 132.978 178.794 133.01ZM179.955 136.154L178.515 136.083C177.777 136.065 177.184 136.228 177.158 136.872C177.135 137.434 177.664 137.679 178.331 137.706C179.35 137.748 179.911 137.219 179.955 136.154ZM184.94 134.153C184.354 134.129 183.817 134.365 183.799 134.787C183.788 135.056 183.934 135.226 184.247 135.321C185.127 135.592 185.968 135.662 186.553 135.991C187.035 136.245 187.299 136.678 187.276 137.252C187.228 138.411 186.002 138.853 184.749 138.802C183.543 138.752 182.358 138.188 182.405 137.052L183.599 137.101C183.589 137.617 184.213 137.853 184.787 137.877C185.349 137.9 186.047 137.753 186.067 137.261C186.079 136.968 185.876 136.784 185.552 136.665C184.709 136.337 184.141 136.455 183.316 135.999C182.822 135.732 182.57 135.311 182.593 134.737C182.637 133.672 183.713 133.177 184.978 133.228C186.242 133.28 187.257 133.979 187.212 135.091L186.006 135.042C186.027 134.515 185.455 134.175 184.94 134.153ZM190.045 136.92C190.016 137.646 190.143 137.979 190.775 138.005C190.974 138.013 191.15 138.009 191.303 137.992L191.527 137.977L191.489 138.902L191.264 138.94C191.111 138.969 190.935 138.974 190.736 138.965C190.115 138.94 189.641 138.78 189.313 138.485C188.985 138.19 188.842 137.656 188.874 136.872L188.976 134.389L188.11 134.354L188.146 133.476L189.012 133.511L189.064 132.258L190.235 132.306L190.183 133.559L191.53 133.614L191.494 134.493L190.147 134.437L190.045 136.92ZM197.5 139.325C195.732 139.252 194.701 138.084 194.769 136.421C194.838 134.747 196.007 133.681 197.729 133.751C199.087 133.807 200.047 134.691 200.255 135.931L199.587 135.904L199.108 135.872C198.924 135.196 198.392 134.74 197.689 134.712C196.682 134.67 196.006 135.428 195.963 136.47C195.919 137.559 196.579 138.337 197.539 138.376C198.276 138.407 198.823 137.948 199.048 137.324L200.196 137.371C199.875 138.613 198.846 139.38 197.5 139.325ZM201.115 136.682C201.148 135.874 201.433 135.217 201.958 134.711C202.483 134.205 203.197 133.976 204.075 134.012C204.953 134.048 205.645 134.334 206.127 134.882C206.609 135.429 206.839 136.107 206.806 136.915C206.773 137.723 206.488 138.38 205.963 138.886C205.437 139.392 204.736 139.622 203.858 139.586L203.846 139.585C202.968 139.549 202.276 139.263 201.794 138.715C201.312 138.168 201.082 137.49 201.115 136.682ZM205.611 136.866C205.654 135.824 205.054 135.014 204.035 134.972C203.028 134.931 202.352 135.689 202.309 136.731C202.266 137.785 202.867 138.583 203.886 138.625C204.951 138.669 205.57 137.885 205.611 136.866ZM209.28 134.343L209.304 135.2C209.645 134.604 210.291 134.302 210.993 134.331C211.789 134.363 212.396 134.728 212.676 135.35C213.078 134.698 213.815 134.446 214.564 134.477C215.934 134.533 216.507 135.437 216.448 136.888L216.321 139.98L215.15 139.932L215.277 136.84C215.313 135.962 214.947 135.455 214.221 135.425C213.436 135.393 212.911 135.899 212.877 136.742L212.75 139.833L211.579 139.785L211.706 136.694C211.742 135.816 211.375 135.308 210.661 135.279C209.865 135.246 209.352 135.741 209.317 136.596L209.19 139.687L208.019 139.639L208.238 134.3L209.28 134.343ZM223.538 137.602C223.471 139.217 222.51 140.351 220.906 140.285C220.063 140.25 219.512 139.97 219.149 139.368L219.041 142.015L217.87 141.967L218.167 134.707L219.21 134.75L219.221 135.607C219.719 134.911 220.186 134.673 221.135 134.712C222.762 134.778 223.602 136.033 223.538 137.602ZM219.229 137.425C219.186 138.479 219.726 139.31 220.733 139.351C221.752 139.393 222.323 138.619 222.367 137.553C222.409 136.523 221.893 135.669 220.886 135.628C219.844 135.585 219.271 136.406 219.229 137.425ZM224.498 137.641C224.565 136.002 225.689 134.898 227.364 134.967C229.026 135.035 230.055 136.262 229.989 137.866L229.976 138.194L225.702 138.019C225.77 138.936 226.331 139.546 227.245 139.583C227.795 139.606 228.215 139.388 228.526 138.944L229.849 138.998C229.383 140.058 228.4 140.592 227.205 140.543C225.414 140.47 224.431 139.268 224.498 137.641ZM228.778 137.371C228.683 136.546 228.179 135.962 227.324 135.927C226.446 135.891 225.907 136.444 225.746 137.246L228.778 137.371ZM232.689 138.669C232.659 139.395 232.786 139.728 233.419 139.754C233.618 139.763 233.794 139.758 233.947 139.741L234.171 139.727L234.133 140.652L233.908 140.689C233.755 140.718 233.578 140.723 233.379 140.714C232.759 140.689 232.284 140.529 231.956 140.234C231.628 139.939 231.486 139.405 231.518 138.621L231.62 136.139L230.754 136.103L230.79 135.225L231.656 135.26L231.708 134.008L232.878 134.056L232.827 135.308L234.174 135.364L234.138 136.242L232.791 136.187L232.689 138.669ZM235.311 133.944C235.329 133.499 235.658 133.208 236.114 133.227C236.618 133.247 236.885 133.587 236.868 134.008C236.849 134.465 236.521 134.744 236.053 134.725C235.561 134.705 235.294 134.366 235.311 133.944ZM236.632 135.465L236.413 140.804L235.243 140.756L235.462 135.416L236.632 135.465ZM239.656 138.955C239.626 139.681 239.753 140.014 240.386 140.04C240.585 140.048 240.761 140.044 240.914 140.027L241.137 140.012L241.099 140.937L240.875 140.975C240.721 141.004 240.545 141.008 240.346 141C239.726 140.975 239.251 140.815 238.923 140.52C238.595 140.225 238.453 139.691 238.485 138.907L238.587 136.424L237.72 136.389L237.756 135.511L238.623 135.546L238.674 134.293L239.845 134.341L239.794 135.594L241.14 135.649L241.104 136.528L239.758 136.472L239.656 138.955ZM242.278 134.23C242.296 133.785 242.624 133.494 243.081 133.512C243.585 133.533 243.852 133.872 243.835 134.294C243.816 134.751 243.488 135.03 243.02 135.011C242.528 134.991 242.26 134.652 242.278 134.23ZM243.599 135.75L243.38 141.09L242.209 141.042L242.428 135.702L243.599 135.75ZM244.789 138.473C244.823 137.665 245.108 137.008 245.633 136.502C246.158 135.996 246.871 135.767 247.749 135.803C248.627 135.839 249.319 136.126 249.801 136.673C250.283 137.221 250.513 137.899 250.48 138.707C250.447 139.515 250.162 140.171 249.637 140.678C249.112 141.184 248.41 141.413 247.532 141.377L247.52 141.377C246.642 141.341 245.95 141.054 245.468 140.507C244.986 139.959 244.756 139.281 244.789 138.473ZM249.286 138.658C249.328 137.616 248.728 136.805 247.71 136.763C246.703 136.722 246.026 137.48 245.984 138.522C245.94 139.576 246.541 140.375 247.56 140.417C248.625 140.46 249.244 139.676 249.286 138.658ZM252.955 136.134L252.967 136.979C253.38 136.339 254.141 136.101 254.878 136.131C256.318 136.19 257.034 137.052 256.972 138.551L256.845 141.642L255.675 141.594L255.801 138.503C255.838 137.613 255.331 137.111 254.546 137.079C253.691 137.044 253.027 137.509 252.991 138.387L252.864 141.479L251.694 141.431L251.913 136.091L252.955 136.134Z" fill="#97918B"/>
<path d="M101.137 153.27L286.98 160.893" stroke="black" stroke-opacity="0.1"/>
<rect x="89.1001" y="170.792" width="5" height="5" rx="2.5" transform="rotate(2.34884 89.1001 170.792)" fill="#0E9F37"/>
<path d="M107.806 173.119C107.725 174.523 106.598 175.11 105.076 175.048L102.98 174.962L102.881 177.362L101.687 177.313L101.953 170.838L105.243 170.973C106.742 171.034 107.864 171.702 107.806 173.107L107.806 173.119ZM105.115 174.087C105.97 174.122 106.507 173.898 106.541 173.067C106.575 172.236 106.058 171.968 105.204 171.933L103.108 171.847L103.019 174.001L105.115 174.087ZM111.382 172.28C112.951 172.345 113.815 173.002 113.751 174.571L113.667 176.631C113.651 177.006 113.664 177.276 113.703 177.454L113.775 177.715L113.771 177.809L112.6 177.761C112.57 177.642 112.49 177.299 112.499 177.076L112.327 177.268C111.971 177.653 111.389 177.828 110.581 177.795C109.328 177.744 108.509 177.135 108.554 176.035C108.603 174.84 109.718 174.523 111.135 174.581L112.575 174.64L112.589 174.312C112.619 173.574 112.139 173.273 111.343 173.24C110.71 173.214 110.069 173.399 110.046 173.961L108.852 173.912C108.872 173.432 109.099 173.031 109.546 172.709C109.982 172.387 110.598 172.248 111.382 172.28ZM112.543 175.424L111.103 175.353C110.365 175.335 109.772 175.498 109.746 176.142C109.723 176.704 110.252 176.949 110.92 176.976C111.938 177.018 112.499 176.49 112.543 175.424ZM115.338 171.059C115.356 170.614 115.685 170.322 116.141 170.341C116.645 170.362 116.912 170.701 116.895 171.122C116.876 171.579 116.548 171.859 116.08 171.84C115.588 171.819 115.32 171.48 115.338 171.059ZM116.659 172.579L116.44 177.918L115.269 177.87L115.488 172.531L116.659 172.579ZM120.481 172.618C121.313 172.652 121.887 172.934 122.205 173.475L122.249 173.547L122.361 170.831L123.52 170.878L123.22 178.196L122.143 178.152L122.128 177.354L122.041 177.479C121.68 177.992 121.084 178.226 120.253 178.192C118.637 178.125 117.785 176.871 117.85 175.302C117.915 173.709 118.889 172.553 120.481 172.618ZM120.654 173.552C119.624 173.51 119.061 174.355 119.02 175.35C118.977 176.415 119.483 177.234 120.501 177.275C121.543 177.318 122.129 176.474 122.17 175.479C122.212 174.449 121.673 173.594 120.654 173.552ZM128.886 176.446C128.856 177.172 128.983 177.506 129.616 177.532C129.815 177.54 129.991 177.536 130.144 177.518L130.367 177.504L130.33 178.429L130.105 178.467C129.951 178.496 129.775 178.5 129.576 178.492C128.956 178.467 128.481 178.306 128.153 178.011C127.825 177.717 127.683 177.183 127.715 176.398L127.817 173.916L126.951 173.881L126.987 173.002L127.853 173.038L127.904 171.785L129.075 171.833L129.024 173.086L130.37 173.141L130.334 174.019L128.988 173.964L128.886 176.446ZM131.116 175.846C131.149 175.038 131.434 174.381 131.959 173.875C132.484 173.369 133.197 173.14 134.075 173.176C134.953 173.212 135.645 173.498 136.127 174.046C136.609 174.593 136.839 175.271 136.806 176.079C136.773 176.887 136.488 177.544 135.963 178.05C135.438 178.557 134.737 178.786 133.858 178.75L133.847 178.749C132.969 178.713 132.277 178.427 131.795 177.879C131.313 177.332 131.083 176.654 131.116 175.846ZM135.612 176.03C135.655 174.988 135.055 174.178 134.036 174.136C133.029 174.095 132.353 174.853 132.31 175.895C132.267 176.949 132.867 177.747 133.886 177.789C134.952 177.833 135.57 177.049 135.612 176.03ZM144.122 174.995L146.954 179.17L145.478 179.109L143.224 175.744L141.694 177.019L141.615 178.951L140.42 178.902L140.686 172.427L141.88 172.476L141.752 175.602L145.358 172.618L146.892 172.681L144.122 174.995ZM149.819 179.381C148.378 179.322 147.663 178.46 147.725 176.949L147.852 173.858L149.023 173.906L148.896 176.997C148.876 177.489 148.99 177.846 149.25 178.079C149.511 178.301 149.811 178.419 150.162 178.433C150.502 178.447 150.846 178.356 151.182 178.159C151.519 177.95 151.698 177.605 151.718 177.113L151.845 174.022L153.004 174.07L152.785 179.409L151.708 179.365L151.693 178.578C151.33 179.126 150.615 179.414 149.819 179.381ZM156.849 174.11C157.68 174.144 158.255 174.426 158.573 174.967L158.617 175.039L158.729 172.322L159.888 172.37L159.588 179.688L158.51 179.644L158.496 178.846L158.409 178.971C158.048 179.484 157.452 179.718 156.621 179.683C155.005 179.617 154.153 178.362 154.217 176.793C154.283 175.201 155.257 174.045 156.849 174.11ZM157.022 175.044C155.992 175.001 155.429 175.846 155.388 176.842C155.345 177.907 155.851 178.725 156.869 178.767C157.911 178.81 158.497 177.966 158.538 176.971C158.58 175.94 158.041 175.085 157.022 175.044ZM163.861 174.433C165.43 174.497 166.295 175.154 166.23 176.723L166.146 178.784C166.13 179.159 166.143 179.429 166.182 179.607L166.254 179.867L166.25 179.961L165.079 179.913C165.049 179.795 164.969 179.451 164.978 179.229L164.806 179.421C164.45 179.805 163.868 179.981 163.06 179.948C161.808 179.896 160.988 179.288 161.033 178.187C161.082 176.993 162.198 176.675 163.614 176.733L165.055 176.792L165.068 176.464C165.098 175.727 164.618 175.426 163.822 175.393C163.19 175.367 162.549 175.552 162.526 176.114L161.331 176.065C161.351 175.585 161.579 175.184 162.026 174.862C162.461 174.54 163.077 174.401 163.861 174.433ZM165.023 177.577L163.583 177.506C162.845 177.487 162.252 177.651 162.225 178.295C162.202 178.857 162.732 179.101 163.399 179.129C164.418 179.171 164.979 178.642 165.023 177.577ZM176.057 178.499C176 179.88 174.809 180.312 173.346 180.252L170.173 180.122L170.438 173.647L173.494 173.772C174.934 173.831 175.927 174.506 175.877 175.735C175.854 176.285 175.531 176.718 174.992 176.989C175.683 177.31 176.085 177.796 176.057 178.499ZM171.593 174.656L171.521 176.424L173.382 176.501C174.132 176.531 174.589 176.257 174.613 175.671C174.638 175.051 174.169 174.762 173.455 174.733L171.593 174.656ZM171.484 177.326L171.406 179.211L173.444 179.294C174.287 179.329 174.776 179.115 174.804 178.435C174.834 177.698 174.27 177.44 173.521 177.409L171.484 177.326ZM179.867 175.089C181.436 175.154 182.301 175.811 182.236 177.38L182.152 179.441C182.137 179.815 182.149 180.086 182.189 180.263L182.26 180.524L182.256 180.618L181.085 180.57C181.055 180.451 180.975 180.108 180.984 179.885L180.812 180.078C180.456 180.462 179.874 180.637 179.066 180.604C177.814 180.553 176.994 179.944 177.039 178.844C177.088 177.65 178.204 177.332 179.621 177.39L181.061 177.449L181.074 177.121C181.104 176.383 180.624 176.082 179.828 176.05C179.196 176.024 178.555 176.208 178.532 176.77L177.337 176.721C177.357 176.241 177.585 175.84 178.032 175.518C178.467 175.196 179.083 175.057 179.867 175.089ZM181.029 178.233L179.589 178.163C178.851 178.144 178.258 178.307 178.231 178.951C178.208 179.513 178.738 179.758 179.405 179.785C180.424 179.827 180.985 179.299 181.029 178.233ZM185.039 175.384L185.052 176.229C185.465 175.589 186.225 175.35 186.963 175.38C188.403 175.44 189.118 176.302 189.057 177.8L188.93 180.891L187.759 180.843L187.886 177.752C187.923 176.862 187.415 176.361 186.631 176.329C185.776 176.293 185.112 176.759 185.076 177.637L184.949 180.728L183.778 180.68L183.997 175.341L185.039 175.384ZM192.04 173.689L191.859 178.115L194.383 175.767L195.823 175.826L193.532 177.925L195.909 181.178L194.527 181.121L192.74 178.655L191.801 179.52L191.74 181.007L190.569 180.959L190.87 173.641L192.04 173.689ZM200.729 178.314C200.711 178.771 200.394 179.051 199.926 179.032C199.457 179.013 199.153 178.707 199.172 178.25C199.191 177.794 199.519 177.514 199.987 177.533C200.456 177.552 200.748 177.858 200.729 178.314ZM203.61 178.432C203.591 178.889 203.275 179.169 202.806 179.15C202.338 179.131 202.034 178.825 202.052 178.369C202.071 177.912 202.399 177.632 202.868 177.651C203.336 177.671 203.628 177.976 203.61 178.432ZM206.49 178.551C206.471 179.007 206.155 179.287 205.687 179.268C205.218 179.249 204.914 178.943 204.933 178.487C204.952 178.03 205.28 177.75 205.748 177.77C206.216 177.789 206.509 178.094 206.49 178.551ZM209.37 178.669C209.352 179.125 209.035 179.406 208.567 179.386C208.099 179.367 207.794 179.061 207.813 178.605C207.832 178.148 208.16 177.868 208.628 177.888C209.097 177.907 209.389 178.212 209.37 178.669ZM212.978 181.069C213.739 181.1 214.27 180.735 214.308 180.103C214.338 179.377 213.625 179.019 212.935 178.991L212.396 178.969L212.434 178.044L213.031 178.068C213.745 178.098 214.25 177.802 214.274 177.216C214.299 176.607 213.868 176.238 213.178 176.209C212.381 176.177 211.894 176.614 211.866 177.293L210.614 177.242C210.668 175.907 211.894 175.195 213.217 175.249C214.458 175.3 215.579 176.003 215.529 177.209C215.5 177.923 215.06 178.351 214.451 178.607C215.209 179.002 215.589 179.475 215.56 180.178C215.507 181.466 214.203 182.081 212.939 182.029C211.534 181.971 210.419 181.128 210.476 179.734L211.729 179.786C211.695 180.605 212.229 181.038 212.978 181.069ZM216.48 179.77L219.943 175.678L221.36 175.736L221.188 179.928L222.02 179.962L221.983 180.863L221.151 180.829L221.095 182.211L219.889 182.161L219.945 180.78L216.444 180.636L216.48 179.77ZM219.982 179.878L220.101 176.974L217.711 179.785L219.982 179.878ZM223.005 177.961C223.063 176.533 224.294 175.704 225.652 175.759C227.045 175.816 228.163 176.589 228.108 177.936C228.058 179.142 227.069 179.805 225.79 180.409C225.252 180.645 224.663 180.997 224.389 181.384L227.96 181.531L227.921 182.491L222.945 182.287L222.97 181.959C223.021 180.706 223.899 180.179 225.361 179.418C226.236 178.962 226.827 178.564 226.855 177.885C226.883 177.194 226.374 176.751 225.612 176.719C224.781 176.685 224.288 177.263 224.258 178.013L223.005 177.961ZM231.008 176.132L232.203 176.18L231.937 182.656L230.743 182.607L230.964 177.209C230.146 177.703 229.727 177.909 228.941 178.205L228.985 177.128C229.808 176.809 230.143 176.636 231.008 176.132Z" fill="#8B8682"/>
</g>
<defs>
<filter id="filter0_d_124_5454" x="-0.842579" y="-0.84264" width="366.915" height="289.303" filterUnits="userSpaceOnUse" color-interpolation-filters="sRGB">
<feFlood flood-opacity="0" result="BackgroundImageFix"/>
<feColorMatrix in="SourceAlpha" type="matrix" values="0 0 0 0 0 0 0 0 0 0 0 0 0 0 0 0 0 0 127 0" result="hardAlpha"/>
<feOffset dx="-13" dy="20"/>
<feGaussianBlur stdDeviation="28.85"/>
<feComposite in2="hardAlpha" operator="out"/>
<feColorMatrix type="matrix" values="0 0 0 0 0 0 0 0 0 0 0 0 0 0 0 0 0 0 0.19 0"/>
<feBlend mode="normal" in2="BackgroundImageFix" result="effect1_dropShadow_124_5454"/>
<feBlend mode="normal" in="SourceGraphic" in2="effect1_dropShadow_124_5454" result="shape"/>
</filter>
<clipPath id="clip0_124_5454">
<rect width="23.3085" height="23.3085" fill="white" transform="translate(267.761 60.7127) rotate(2.34884)"/>
</clipPath>
</defs>
</svg>
