<svg width="24" height="24" viewBox="0 0 24 24" fill="none" xmlns="http://www.w3.org/2000/svg">
<path d="M14.9917 11.9932C17.1995 11.9932 18.9893 10.2034 18.9893 7.99562C18.9893 5.78782 17.1995 3.99805 14.9917 3.99805C12.7839 3.99805 10.9941 5.78782 10.9941 7.99562C10.9941 10.2034 12.7839 11.9932 14.9917 11.9932Z" fill="white"/>
<path d="M14.9915 19.9882C14.9915 19.9882 22.9866 19.9882 22.9866 17.9894C22.9866 15.5909 19.089 12.9925 14.9915 12.9925C10.894 12.9925 6.99636 15.5909 6.99636 17.9894C6.99636 19.9882 14.9915 19.9882 14.9915 19.9882ZM5.99697 9.99427V6.99609H3.99818V9.99427H1V11.9931H3.99818V14.9912H5.99697V11.9931H8.99514V9.99427H5.99697Z" fill="white"/>
</svg>
