<svg width="15" height="14" viewBox="0 0 15 14" fill="none" xmlns="http://www.w3.org/2000/svg">
<path d="M3.29541 1.23633H11.2214C11.2214 1.23633 10.5614 11.1791 7.25841 11.1791C5.64591 11.1791 4.66266 8.80608 4.07916 6.37908C3.46866 3.83733 3.29541 1.23633 3.29541 1.23633Z" stroke="#E9AD01" stroke-width="0.97338" stroke-linecap="round" stroke-linejoin="round"/>
<path d="M11.2211 1.23694C11.2211 1.23694 11.9119 0.499693 12.4864 0.486943C13.6114 0.461443 13.8191 1.23694 13.8191 1.23694C14.0396 1.69444 14.2159 2.88244 13.1591 3.97969C12.1024 5.07694 10.9189 6.03694 10.4374 6.37969M3.29515 1.23694C3.29515 1.23694 2.57515 0.491443 1.9864 0.486943C0.861396 0.477943 0.653646 1.23694 0.653646 1.23694C0.433146 1.69444 0.256896 2.88244 1.31365 3.97969C2.16866 4.85349 3.09347 5.65615 4.0789 6.37969M4.61665 13.2369C4.61665 11.8652 7.25815 11.1797 7.25815 11.1797C7.25815 11.1797 9.9004 11.8652 9.9004 13.2369H4.61665Z" stroke="#E9AD01" stroke-width="0.97338" stroke-linecap="round" stroke-linejoin="round"/>
</svg>
