<svg width="18" height="22" viewBox="0 0 18 22" fill="none" xmlns="http://www.w3.org/2000/svg">
<path fill-rule="evenodd" clip-rule="evenodd" d="M2.99818 5.99636C2.99818 4.40603 3.62994 2.88083 4.75447 1.75629C5.87901 0.631757 7.4042 0 8.99454 0C10.5849 0 12.1101 0.631757 13.2346 1.75629C14.3591 2.88083 14.9909 4.40603 14.9909 5.99636H15.9903C16.5204 5.99636 17.0288 6.20694 17.4036 6.58179C17.7785 6.95663 17.9891 7.46503 17.9891 7.99514V17.9891C17.9891 18.5192 17.7785 19.0276 17.4036 19.4024C17.0288 19.7773 16.5204 19.9879 15.9903 19.9879H1.99879C1.46868 19.9879 0.960276 19.7773 0.585431 19.4024C0.210586 19.0276 0 18.5192 0 17.9891V7.99514C0 7.46503 0.210586 6.95663 0.585431 6.58179C0.960276 6.20694 1.46868 5.99636 1.99879 5.99636H2.99818ZM8.99454 1.99879C10.0548 1.99879 11.0716 2.41996 11.8212 3.16965C12.5709 3.91934 12.9921 4.93614 12.9921 5.99636H4.99697C4.99697 4.93614 5.41814 3.91934 6.16783 3.16965C6.91752 2.41996 7.93432 1.99879 8.99454 1.99879ZM10.9933 11.9927C10.9933 12.3436 10.901 12.6882 10.7255 12.9921C10.5501 13.2959 10.2978 13.5482 9.99393 13.7237V14.9909C9.99393 15.256 9.88864 15.5102 9.70121 15.6976C9.51379 15.885 9.25959 15.9903 8.99454 15.9903C8.72948 15.9903 8.47528 15.885 8.28786 15.6976C8.10044 15.5102 7.99514 15.256 7.99514 14.9909V13.7237C7.61412 13.5037 7.31633 13.1641 7.14797 12.7576C6.9796 12.3511 6.95007 11.9004 7.06395 11.4754C7.17783 11.0504 7.42875 10.6749 7.77781 10.407C8.12687 10.1391 8.55455 9.99395 8.99454 9.99393C9.52465 9.99393 10.033 10.2045 10.4079 10.5794C10.7827 10.9542 10.9933 11.4626 10.9933 11.9927Z" fill="white"/>
</svg>
