<svg width="14" height="14" viewBox="0 0 14 14" fill="none" xmlns="http://www.w3.org/2000/svg">
<path d="M12.462 3.72539C13.1607 5.1866 13.2933 6.8548 12.8343 8.40804C12.3753 9.96128 11.3572 11.2895 9.97658 12.1362C8.59592 12.983 6.95054 13.2883 5.358 12.9932C3.76546 12.6982 2.33866 11.8237 1.35297 10.5386C0.367277 9.25339 -0.107428 7.64867 0.0204699 6.03409C0.148368 4.41951 0.869804 2.90953 2.04554 1.79559C3.22127 0.681641 4.76796 0.0426948 6.38709 0.0020637C8.00622 -0.0385674 9.58301 0.521997 10.8131 1.57557L12.2399 0.148224C12.3343 0.0537523 12.4625 0.00067859 12.5961 0.00067859C12.7297 0.00067859 12.8578 0.0537523 12.9523 0.148224C13.0467 0.242696 13.0998 0.370827 13.0998 0.504431C13.0998 0.638034 13.0467 0.766165 12.9523 0.860637L6.9106 6.9023C6.81612 6.99678 6.68799 7.04985 6.55439 7.04985C6.42079 7.04985 6.29265 6.99678 6.19818 6.9023C6.10371 6.80783 6.05064 6.6797 6.05064 6.5461C6.05064 6.41249 6.10371 6.28436 6.19818 6.18989L7.94271 4.44536C7.46992 4.13267 6.90544 3.9887 6.34065 4.03676C5.77585 4.08481 5.2438 4.32207 4.83064 4.71014C4.41747 5.0982 4.14736 5.61435 4.06404 6.17503C3.98072 6.7357 4.08906 7.30809 4.37153 7.79953C4.654 8.29097 5.09407 8.6727 5.62048 8.88291C6.1469 9.09312 6.72885 9.11952 7.27214 8.95783C7.81542 8.79614 8.28823 8.45582 8.61404 7.99197C8.93984 7.52813 9.09956 6.9679 9.06735 6.40198C9.06363 6.33586 9.07297 6.26966 9.09483 6.20715C9.1167 6.14464 9.15066 6.08706 9.19478 6.03767C9.23891 5.98829 9.29232 5.94809 9.35198 5.91935C9.41164 5.89061 9.47638 5.8739 9.5425 5.87019C9.67603 5.86267 9.80707 5.90852 9.9068 5.99762C9.95618 6.04175 9.99639 6.09516 10.0251 6.15482C10.0539 6.21448 10.0706 6.27922 10.0743 6.34534C10.1202 7.14635 9.89141 7.93905 9.42575 8.59241C8.96009 9.24578 8.28544 9.7207 7.51329 9.93869C6.74115 10.1567 5.91774 10.1047 5.17915 9.79129C4.44056 9.4779 3.83101 8.92188 3.45125 8.21512C3.07148 7.50836 2.94424 6.69318 3.09054 5.90431C3.23684 5.11544 3.64793 4.4001 4.25587 3.87652C4.86381 3.35294 5.6322 3.05246 6.43405 3.02476C7.2359 2.99705 8.0232 3.24377 8.66583 3.72414L10.0976 2.29239C9.04834 1.42125 7.71425 0.968482 6.35152 1.02104C4.9888 1.0736 3.69355 1.62778 2.71452 2.57714C1.7355 3.5265 1.14175 4.80411 1.04731 6.16457C0.95287 7.52503 1.3644 8.87241 2.20285 9.94794C3.04131 11.0235 4.24757 11.7513 5.58996 11.9916C6.93235 12.232 8.31621 11.9679 9.47574 11.2501C10.6353 10.5323 11.4887 9.41138 11.8722 8.10267C12.2556 6.79395 12.1421 5.38971 11.5532 4.15964C11.4957 4.03913 11.4883 3.90068 11.5328 3.77475C11.5773 3.64882 11.67 3.54572 11.7905 3.48813C11.911 3.43055 12.0495 3.4232 12.1754 3.46769C12.3013 3.51219 12.4044 3.60488 12.462 3.72539Z" fill="#8A38F5"/>
</svg>
