<svg width="24" height="24" viewBox="0 0 24 24" fill="none" xmlns="http://www.w3.org/2000/svg">
<path d="M11.9926 21.7378C6.61979 21.7378 2.24854 17.359 2.24854 11.9773C2.24854 9.05172 3.5251 6.30885 5.75078 4.45607C5.8547 4.36904 5.97477 4.30336 6.10411 4.2628C6.23345 4.22223 6.36952 4.20759 6.50453 4.21969C6.63954 4.23179 6.77084 4.27041 6.8909 4.33333C7.01097 4.39625 7.11744 4.48223 7.20422 4.58636C7.29101 4.69049 7.3564 4.81071 7.39665 4.94015C7.4369 5.06959 7.45122 5.20569 7.4388 5.34067C7.42637 5.47565 7.38744 5.60686 7.32423 5.72677C7.26103 5.84668 7.17479 5.95295 7.07045 6.03948C5.31605 7.50109 4.30978 9.66541 4.30978 11.9773C4.30978 16.2225 7.75628 19.6765 11.9926 19.6765C16.229 19.6765 19.6755 16.2225 19.6755 11.9773C19.6753 10.8427 19.4239 9.72229 18.9393 8.69644C18.4547 7.6706 17.7489 6.76482 16.8726 6.04417C16.7641 5.95943 16.6736 5.85379 16.6066 5.73351C16.5396 5.61322 16.4973 5.48072 16.4823 5.34383C16.4674 5.20695 16.48 5.06845 16.5194 4.93652C16.5589 4.80459 16.6244 4.6819 16.712 4.5757C16.7997 4.4695 16.9078 4.38195 17.0298 4.31822C17.1519 4.25448 17.2855 4.21585 17.4227 4.20461C17.56 4.19337 17.6981 4.20975 17.8289 4.25278C17.9597 4.29581 18.0806 4.36461 18.1843 4.45513C19.2952 5.3688 20.1899 6.5172 20.8041 7.81781C21.4183 9.11842 21.7368 10.5389 21.7367 11.9773C21.7367 17.359 17.3654 21.7378 11.9926 21.7378Z" fill="white"/>
<path d="M11.9925 12.7417C11.7192 12.7417 11.4571 12.6331 11.2638 12.4398C11.0705 12.2465 10.9619 11.9844 10.9619 11.7111V3.27867C10.9619 3.00533 11.0705 2.74319 11.2638 2.54991C11.4571 2.35663 11.7192 2.24805 11.9925 2.24805C12.2659 2.24805 12.528 2.35663 12.7213 2.54991C12.9146 2.74319 13.0232 3.00533 13.0232 3.27867V11.7111C13.0232 11.9844 12.9146 12.2465 12.7213 12.4398C12.528 12.6331 12.2659 12.7417 11.9925 12.7417Z" fill="white"/>
</svg>
