<svg width="24" height="24" viewBox="0 0 24 24" fill="none" xmlns="http://www.w3.org/2000/svg">
<path d="M11.9927 3.99805C13.0529 3.99805 14.0697 4.41922 14.8194 5.16891C15.5691 5.9186 15.9903 6.9354 15.9903 7.99562C15.9903 9.05584 15.5691 10.0726 14.8194 10.8223C14.0697 11.572 13.0529 11.9932 11.9927 11.9932C10.9325 11.9932 9.91568 11.572 9.16599 10.8223C8.4163 10.0726 7.99513 9.05584 7.99513 7.99562C7.99513 6.9354 8.4163 5.9186 9.16599 5.16891C9.91568 4.41922 10.9325 3.99805 11.9927 3.99805ZM11.9927 13.992C16.41 13.992 19.9878 15.7809 19.9878 17.9896V19.9883H3.99756V17.9896C3.99756 15.7809 7.57539 13.992 11.9927 13.992Z" fill="white"/>
</svg>
