<svg width="24" height="24" viewBox="0 0 24 24" fill="none" xmlns="http://www.w3.org/2000/svg">
<path d="M3.99781 19.9883C3.44814 19.9883 2.97776 19.7928 2.58667 19.4017C2.19557 19.0106 1.99969 18.5399 1.99902 17.9895V5.99683C1.99902 5.44717 2.1949 4.97679 2.58667 4.58569C2.97843 4.19459 3.44881 3.99871 3.99781 3.99805H19.9881C20.5378 3.99805 21.0085 4.19393 21.4002 4.58569C21.792 4.97745 21.9876 5.44783 21.9869 5.99683V17.9895C21.9869 18.5392 21.7913 19.0099 21.4002 19.4017C21.0091 19.7935 20.5384 19.989 19.9881 19.9883H3.99781ZM11.993 12.9926L19.9881 7.99562V5.99683L11.993 10.9938L3.99781 5.99683V7.99562L11.993 12.9926Z" fill="white"/>
</svg>
