<svg width="24" height="24" viewBox="0 0 24 24" fill="none" xmlns="http://www.w3.org/2000/svg">
<path d="M4.03728 18.522H19.9482C20.902 18.522 21.4644 18.0303 21.4644 17.3073C21.4644 16.3033 20.4502 15.4 19.5768 14.5066C18.9142 13.814 18.7335 12.3886 18.6633 11.2343C18.5832 7.37948 17.5693 4.71924 14.889 3.75554C14.5176 2.45047 13.4734 1.40625 11.9979 1.40625C10.5116 1.40625 9.47812 2.45047 9.09649 3.75554C6.4264 4.71924 5.40231 7.37905 5.33206 11.2339C5.25197 12.3886 5.08107 13.814 4.40862 14.5066C3.54515 15.4 2.52148 16.3033 2.52148 17.3077C2.52148 18.0303 3.09371 18.522 4.03728 18.522ZM8.93587 19.8875C9.05666 21.3531 10.2911 22.5773 11.9979 22.5773C13.694 22.5773 14.9288 21.3531 15.0594 19.8875H8.93587Z" fill="white"/>
</svg>
