<svg width="24" height="24" viewBox="0 0 24 24" fill="none" xmlns="http://www.w3.org/2000/svg">
<path d="M10.1937 4.79701H13.7915C13.7915 4.31991 13.602 3.86235 13.2646 3.52499C12.9273 3.18763 12.4697 2.9981 11.9926 2.9981C11.5155 2.9981 11.058 3.18763 10.7206 3.52499C10.3832 3.86235 10.1937 4.31991 10.1937 4.79701ZM8.99443 4.79701C8.99443 4.00184 9.31031 3.23924 9.87258 2.67697C10.4348 2.11471 11.1974 1.79883 11.9926 1.79883C12.7878 1.79883 13.5504 2.11471 14.1126 2.67697C14.6749 3.23924 14.9908 4.00184 14.9908 4.79701H20.9871C21.1462 4.79701 21.2987 4.86018 21.4112 4.97264C21.5236 5.08509 21.5868 5.23761 21.5868 5.39664C21.5868 5.55568 21.5236 5.7082 21.4112 5.82065C21.2987 5.9331 21.1462 5.99628 20.9871 5.99628H19.7231L18.2912 18.4015C18.19 19.2784 17.7699 20.0875 17.1109 20.6749C16.452 21.2622 15.6001 21.5867 14.7174 21.5868H9.26787C8.38515 21.5867 7.53325 21.2622 6.87428 20.6749C6.21531 20.0875 5.79525 19.2784 5.69404 18.4015L4.26211 5.99628H2.99807C2.83904 5.99628 2.68652 5.9331 2.57407 5.82065C2.46161 5.7082 2.39844 5.55568 2.39844 5.39664C2.39844 5.23761 2.46161 5.08509 2.57407 4.97264C2.68652 4.86018 2.83904 4.79701 2.99807 4.79701H8.99443ZM10.7933 9.59409C10.7933 9.43506 10.7302 9.28254 10.6177 9.17009C10.5053 9.05763 10.3527 8.99446 10.1937 8.99446C10.0347 8.99446 9.88215 9.05763 9.7697 9.17009C9.65724 9.28254 9.59407 9.43506 9.59407 9.59409V16.7897C9.59407 16.9488 9.65724 17.1013 9.7697 17.2137C9.88215 17.3262 10.0347 17.3894 10.1937 17.3894C10.3527 17.3894 10.5053 17.3262 10.6177 17.2137C10.7302 17.1013 10.7933 16.9488 10.7933 16.7897V9.59409ZM13.7915 8.99446C13.6325 8.99446 13.48 9.05763 13.3675 9.17009C13.2551 9.28254 13.1919 9.43506 13.1919 9.59409V16.7897C13.1919 16.9488 13.2551 17.1013 13.3675 17.2137C13.48 17.3262 13.6325 17.3894 13.7915 17.3894C13.9506 17.3894 14.1031 17.3262 14.2155 17.2137C14.328 17.1013 14.3912 16.9488 14.3912 16.7897V9.59409C14.3912 9.43506 14.328 9.28254 14.2155 9.17009C14.1031 9.05763 13.9506 8.99446 13.7915 8.99446Z" fill="white"/>
</svg>
