<svg width="275" height="69" viewBox="0 0 275 69" fill="none" xmlns="http://www.w3.org/2000/svg">
<path d="M124.402 -65H153.295V27.298H124.402V-65Z" fill="url(#paint0_linear_248_1864)"/>
<path d="M224.648 -40.1196L243.604 -18.3136L173.946 42.2393L154.99 20.4333L224.648 -40.1196Z" fill="url(#paint1_linear_248_1864)"/>
<path d="M105.198 42.5471L124.153 20.7411L54.4953 -39.8118L35.5396 -18.0058L105.198 42.5471Z" fill="url(#paint2_linear_248_1864)"/>
<path d="M92.2979 68.2302V39.3369H-0.0001297V68.2302H92.2979Z" fill="url(#paint3_linear_248_1864)"/>
<rect width="28.8933" height="92.298" transform="matrix(0 -1 -1 0 275 68.127)" fill="url(#paint4_linear_248_1864)"/>
<defs>
<linearGradient id="paint0_linear_248_1864" x1="130" y1="-29.8651" x2="139.37" y2="47.4317" gradientUnits="userSpaceOnUse">
<stop stop-color="white" stop-opacity="0"/>
<stop offset="1" stop-color="white" stop-opacity="0.8"/>
</linearGradient>
<linearGradient id="paint1_linear_248_1864" x1="234.126" y1="-29.2166" x2="164.468" y2="31.3363" gradientUnits="userSpaceOnUse">
<stop offset="0.11111" stop-color="white" stop-opacity="0"/>
<stop offset="1" stop-color="white" stop-opacity="0.8"/>
</linearGradient>
<linearGradient id="paint2_linear_248_1864" x1="73.1989" y1="-12.2977" x2="131.172" y2="42.747" gradientUnits="userSpaceOnUse">
<stop stop-color="white" stop-opacity="0"/>
<stop offset="1" stop-color="white" stop-opacity="0.8"/>
</linearGradient>
<linearGradient id="paint3_linear_248_1864" x1="7.02826" y1="53.2876" x2="134.099" y2="53.2876" gradientUnits="userSpaceOnUse">
<stop stop-color="white" stop-opacity="0"/>
<stop offset="1" stop-color="white" stop-opacity="0.8"/>
</linearGradient>
<linearGradient id="paint4_linear_248_1864" x1="14.4466" y1="0" x2="14.4466" y2="92.298" gradientUnits="userSpaceOnUse">
<stop stop-color="white" stop-opacity="0"/>
<stop offset="1" stop-color="white" stop-opacity="0.8"/>
</linearGradient>
</defs>
</svg>
