<svg width="40" height="40" viewBox="0 0 40 40" fill="none" xmlns="http://www.w3.org/2000/svg">
<path d="M36.6673 18.2011L32.1007 15.5511C36.5007 11.8011 32.084 4.80106 26.8007 7.18439L25.3507 7.80106L25.1673 6.20106C25.0007 4.40106 24.0673 3.11772 22.834 2.36772C20.1007 0.779389 15.934 1.86772 15.2673 5.83439L10.684 3.20106C9.08398 2.26772 7.05065 2.81772 6.13398 4.41772L4.46732 7.30106C4.00065 8.10106 4.28398 9.11772 5.08398 9.58439L18.0673 17.0844L20.5673 12.7511L23.4507 14.4177L20.9507 18.7511L33.934 26.2511C34.734 26.6677 35.7673 26.4344 36.2173 25.6344L37.884 22.7511C38.8007 21.1511 38.2673 19.1177 36.6673 18.2011ZM20.6173 8.33439C19.1673 8.75106 18.0007 7.20106 18.734 5.91772C19.1673 5.11772 20.2173 4.85106 21.0173 5.30106C22.3007 6.05106 22.0507 7.98439 20.6173 8.33439ZM29.2673 13.3344C27.834 13.7511 26.6673 12.2011 27.4007 10.9177C27.8507 10.1177 28.884 9.85106 29.6673 10.3011C30.9507 11.0511 30.7007 12.9844 29.2673 13.3344ZM34.784 28.1344C35.4673 28.1344 36.1173 27.9011 36.6673 27.5011V33.3344C36.6673 35.1844 35.184 36.6677 33.334 36.6677H6.66732C5.78326 36.6677 4.93542 36.3165 4.31029 35.6914C3.68517 35.0663 3.33398 34.2184 3.33398 33.3344V18.3344H16.9173L18.334 19.1677V33.3344H21.6673V21.0844L33.1173 27.6844C33.6173 27.9844 34.1673 28.1344 34.784 28.1344Z" fill="white"/>
</svg>
