<svg width="169" height="52" viewBox="0 0 169 52" fill="none" xmlns="http://www.w3.org/2000/svg">
<rect y="14.8381" width="165.448" height="37.2241" rx="18.6121" transform="rotate(-5.14545 0 14.8381)" fill="#FCC11A" fill-opacity="0.12"/>
<rect x="0.386063" y="15.1604" width="164.737" height="36.5129" rx="18.2565" transform="rotate(-5.14545 0.386063 15.1604)" stroke="#7646CD" stroke-opacity="0.23" stroke-width="0.711207"/>
<path opacity="0.8" d="M16.4464 38.8776L35.0206 37.205L33.348 18.6308L14.7738 20.3034L16.4464 38.8776ZM38.3655 27.0353L39.9435 26.8932L40.2228 29.9949L43.5241 29.6976L43.6499 31.0943L40.3486 31.3916L40.6459 34.6929L39.0678 34.835L38.7705 31.5337L35.4693 31.831L35.3435 30.4343L38.6448 30.137L38.3655 27.0353ZM49.5196 33.3269C50.7349 33.2175 51.4381 32.2948 51.3433 31.2427C51.2453 30.1544 50.3326 29.3588 49.1717 29.4634C48.4098 29.532 47.8688 29.8184 47.4529 30.2764L45.7318 29.8463L45.9901 24.7944L52.1029 24.2439L52.2368 25.7313L47.6658 26.1429L47.5351 28.5502C48.1225 28.1681 48.6568 28.0103 49.3824 27.9449C51.4502 27.7587 53.0898 28.9094 53.2777 30.9954L53.2793 31.0135C53.472 33.1539 51.7395 34.6265 49.6535 34.8143C47.495 35.0087 45.5735 33.7737 45.3775 31.597L47.3183 31.4223C47.4261 32.6194 48.268 33.4396 49.5196 33.3269ZM59.625 33.8616C56.6139 34.1327 54.9322 32.1081 54.6627 29.1152C54.3883 26.0679 55.7324 23.7342 58.6891 23.468C61.682 23.1985 63.3917 25.3303 63.6596 28.3051C63.9323 31.3343 62.5816 33.5953 59.625 33.8616ZM61.755 28.4766C61.5704 26.4269 60.5495 24.8365 58.8263 24.9917C57.0668 25.1501 56.3711 26.9682 56.5491 28.9453C56.7272 30.9225 57.7002 32.5903 59.496 32.4286C61.2736 32.2685 61.9363 30.49 61.755 28.4766ZM73.3386 26.1352L75.6834 22.1206L77.8238 21.9278L74.7112 27.1636L78.9084 31.9423L76.7862 32.1334L73.5427 28.4026L71.018 32.6528L68.8776 32.8455C69.4341 31.9177 70.5338 30.1181 72.1718 27.3923L68.1739 22.7968L70.2961 22.6057L73.3386 26.1352ZM89.0638 24.0975C89.2236 26.2774 87.6067 27.4104 85.2487 27.6228L82.0018 27.9151L82.3366 31.6336L80.4865 31.8002L79.5832 21.7694L84.6803 21.3104C87.002 21.1014 88.8662 21.9027 89.0622 24.0793L89.0638 24.0975ZM85.1147 26.1354C86.4389 26.0161 87.2208 25.5617 87.1049 24.2739C86.9889 22.986 86.1383 22.6786 84.8142 22.7978L81.5673 23.0902L81.8679 26.4277L85.1147 26.1354ZM94.3712 26.3807C94.1426 23.8413 95.6513 21.9134 98.2451 21.6798C100.821 21.4479 102.655 23.1296 102.878 25.6147L102.924 26.1226L96.3034 26.7187C96.5941 28.1189 97.5827 28.9441 98.9975 28.8167C99.85 28.74 100.452 28.32 100.842 27.5718L102.892 27.3872C102.389 29.1148 100.982 30.1375 99.1314 30.3041C96.3562 30.554 94.5983 28.902 94.3712 26.3807ZM100.912 25.0969C100.598 23.8451 99.7032 23.048 98.3791 23.1672C97.0186 23.2897 96.3006 24.2504 96.2137 25.5199L100.912 25.0969ZM108.208 20.8375C110.639 20.6187 112.104 21.4559 112.323 23.8865L112.61 27.0789C112.663 27.6594 112.736 28.0733 112.833 28.3389L112.996 28.7265L113.009 28.8716L111.196 29.0349C111.125 28.8584 110.932 28.3455 110.901 28.0008L110.675 28.3321C110.205 28.9962 109.344 29.3845 108.092 29.4972C106.151 29.672 104.765 28.9008 104.612 27.1958C104.445 25.3456 106.099 24.6298 108.294 24.4321L110.525 24.2312L110.48 23.7233C110.377 22.5806 109.576 22.2139 108.342 22.3249C107.363 22.4131 106.413 22.8278 106.491 23.6985L104.641 23.8651C104.574 23.1214 104.843 22.4571 105.467 21.8707C106.073 21.2858 106.993 20.947 108.208 20.8375ZM110.635 25.4465L108.402 25.6293C107.261 25.7503 106.38 26.1222 106.47 27.1199C106.548 27.9905 107.414 28.26 108.448 28.1669C110.026 28.0248 110.783 27.0972 110.635 25.4465ZM116.427 21.542C116.909 20.6026 117.876 19.967 119.164 19.851L119.472 19.8232L119.766 19.8334L119.931 21.6654L119.431 21.6007C119.248 21.5989 119.047 21.5987 118.848 21.6166C118.34 21.6624 117.845 21.8532 117.362 22.171C116.896 22.4872 116.69 23.0361 116.76 23.8161L117.181 28.4959L115.368 28.6593L114.623 20.3879L116.237 20.2426L116.427 21.542ZM123.166 19.6186L123.356 20.9181C123.863 19.8484 124.987 19.3267 126.129 19.2238C128.361 19.0229 129.637 20.2062 129.846 22.528L130.278 27.3166L128.464 27.48L128.033 22.6913C127.908 21.3128 127.025 20.6426 125.81 20.752C124.486 20.8712 123.557 21.7229 123.679 23.0833L124.11 27.872L122.297 28.0353L121.552 19.764L123.166 19.6186ZM131.882 23.0029C131.654 20.4635 133.162 18.5356 135.756 18.3021C138.332 18.0701 140.166 19.7519 140.39 22.2369L140.435 22.7448L133.815 23.341C134.105 24.7411 135.094 25.5664 136.509 25.439C137.361 25.3622 137.963 24.9423 138.353 24.194L140.403 24.0094C139.9 25.737 138.493 26.7597 136.643 26.9263C133.867 27.1763 132.109 25.5242 131.882 23.0029ZM138.423 21.7191C138.109 20.4674 137.214 19.6702 135.89 19.7894C134.53 19.9119 133.812 20.8726 133.725 22.1422L138.423 21.7191ZM145.388 17.4347C146.676 17.3188 147.619 17.6362 148.218 18.405L148.301 18.5073L147.922 14.2991L149.717 14.1374L150.738 25.4742L149.07 25.6245L148.886 24.3976L148.777 24.6085C148.324 25.4721 147.453 25.9529 146.166 26.0688C143.662 26.2942 142.096 24.5336 141.877 22.103C141.655 19.6361 142.921 17.6569 145.388 17.4347ZM145.844 18.8383C144.247 18.982 143.552 20.3978 143.691 21.9396C143.839 23.5903 144.785 24.7486 146.363 24.6065C147.977 24.4611 148.709 23.0421 148.57 21.5003C148.426 19.904 147.422 18.6962 145.844 18.8383Z" fill="black" fill-opacity="0.6"/>
</svg>
